<?xml version="1.0" encoding="UTF-8" standalone="no"?>
<svg
   version="1.1"
   width="600px"
   height="600px"
   viewBox="0 0 200 200"
   style="overflow:hidden!important;"
   id="svg1"
   sodipodi:docname="logo.svg"
   inkscape:version="1.4.2 (ebf0e940, 2025-05-08)"
   xmlns:inkscape="http://www.inkscape.org/namespaces/inkscape"
   xmlns:sodipodi="http://sodipodi.sourceforge.net/DTD/sodipodi-0.dtd"
   xmlns="http://www.w3.org/2000/svg"
   xmlns:svg="http://www.w3.org/2000/svg">
  <sodipodi:namedview
     id="namedview1"
     pagecolor="#ffffff"
     bordercolor="#000000"
     borderopacity="0.25"
     inkscape:showpageshadow="2"
     inkscape:pageopacity="0.0"
     inkscape:pagecheckerboard="0"
     inkscape:deskcolor="#d1d1d1"
     showguides="true"
     inkscape:zoom="0.89591804"
     inkscape:cx="253.92948"
     inkscape:cy="323.69032"
     inkscape:window-width="1712"
     inkscape:window-height="1073"
     inkscape:window-x="0"
     inkscape:window-y="34"
     inkscape:window-maximized="0"
     inkscape:current-layer="svga-group-wrapper" />
  <g
     id="svga-group-wrapper">
    <rect
       style="overflow:hidden;fill:#3c3c3c;fill-opacity:1;stroke:none;stroke-width:5.58829;stroke-linejoin:round;stroke-dasharray:none;stroke-opacity:1"
       id="rect1"
       width="200"
       height="200"
       x="0"
       y="0" />
    <g
       id="svga-group-backs-single"
       style="display:none">
      <circle
         style="overflow:hidden;fill:#3c3c3c;stroke-width:3.19462"
         id="path1"
         cx="100"
         cy="100"
         r="100"
         inkscape:label="path1" />
      <path
         d="m 100,88.10026 c -6.499994,0 -11.89974,5.299747 -11.89974,11.89974 0,6.49999 5.299747,11.89974 11.89974,11.89974 6.59999,0 11.89974,-5.29975 11.89974,-11.89974 0,-6.499994 -5.29975,-11.89974 -11.89974,-11.89974 z m 0,6 c 3.3,0 5.89974,2.599743 5.89974,5.89974 0,3.2 -2.59974,5.89974 -5.89974,5.89974 -3.199997,0 -5.89974,-2.59974 -5.89974,-5.89974 0,-3.199997 2.599743,-5.89974 5.89974,-5.89974 z"
         style="display:inline;opacity:1;fill:#2d2d2d"
         id="path34" />
      <path
         d="m 100,75.80013 c -13.299987,0 -24.19987,10.799883 -24.19987,24.19987 0,13.39999 10.899883,24.19987 24.19987,24.19987 13.29999,0 24.19987,-10.79988 24.19987,-24.19987 0,-13.399987 -10.89988,-24.19987 -24.19987,-24.19987 z m 0,6 c 9.99999,0 18.19987,8.19988 18.19987,18.19987 0,9.99999 -8.19988,18.19987 -18.19987,18.19987 -9.99999,0 -18.19987,-8.19988 -18.19987,-18.19987 0,-9.99999 8.19988,-18.19987 18.19987,-18.19987 z"
         style="display:inline;opacity:1;fill:#2d2d2d"
         id="path33" />
      <path
         d="m 100,60.80013 c -21.599978,0 -39.19987,17.599892 -39.19987,39.19987 0,21.59998 17.599892,39.19987 39.19987,39.19987 21.59998,0 39.19987,-17.59989 39.19987,-39.19987 0,-21.599978 -17.59989,-39.19987 -39.19987,-39.19987 z m 0,6 c 18.29998,0 33.19987,14.899888 33.19987,33.19987 0,18.29998 -14.89989,33.19987 -33.19987,33.19987 -18.299982,0 -33.19987,-14.89989 -33.19987,-33.19987 0,-18.299982 14.899888,-33.19987 33.19987,-33.19987 z"
         style="display:inline;opacity:1;fill:#2d2d2d"
         id="path32" />
      <path
         d="m 100,45.69987 c -29.89997,0 -54.30013,24.40016 -54.30013,54.30013 0,29.89997 24.40016,54.30013 54.30013,54.30013 29.89997,0 54.30013,-24.30016 54.30013,-54.30013 0,-29.99997 -24.40016,-54.30013 -54.30013,-54.30013 z m 0,6 c 26.59997,0 48.30013,21.700157 48.30013,48.30013 0,26.59997 -21.70016,48.30013 -48.30013,48.30013 -26.599973,0 -48.30013,-21.70016 -48.30013,-48.30013 0,-26.599973 21.700157,-48.30013 48.30013,-48.30013 z"
         style="display:inline;opacity:1;fill:#2d2d2d"
         id="path31" />
      <path
         d="m 100,31.89974 c -37.599962,0 -68.10026,30.600297 -68.10026,68.10026 0,37.49996 30.500298,68.10026 68.10026,68.10026 37.59996,0 68.10026,-30.6003 68.10026,-68.10026 0,-37.499963 -30.5003,-68.10026 -68.10026,-68.10026 z m 0,6 c 34.19997,0 62.10026,27.900294 62.10026,62.10026 0,34.19997 -27.90029,62.10026 -62.10026,62.10026 -34.199966,0 -62.10026,-27.90029 -62.10026,-62.10026 0,-34.199966 27.900294,-62.10026 62.10026,-62.10026 z"
         style="display:inline;opacity:1;fill:#2d2d2d"
         id="path30" />
      <path
         d="m 100,15.89974 c -46.399954,0 -84.10026,37.700306 -84.10026,84.10026 0,46.39995 37.700306,84.10026 84.10026,84.10026 46.39995,0 84.10026,-37.70031 84.10026,-84.10026 0,-46.399954 -37.70031,-84.10026 -84.10026,-84.10026 z m 0,6 c 43.09996,0 78.10026,35.100303 78.10026,78.10026 0,42.99996 -35.0003,78.10026 -78.10026,78.10026 -43.099957,0 -78.10026,-35.0003 -78.10026,-78.10026 0,-43.099957 35.000303,-78.10026 78.10026,-78.10026 z"
         style="display:inline;opacity:1;fill:#2d2d2d"
         id="path29" />
      <path
         d="M 89.60026,0 C 42.500308,4.8999951 4.8999951,42.500308 0,89.60026 v 20.79948 C 4.8999951,157.49969 42.500308,195.1 89.60026,200 h 20.79948 C 157.49969,195.1 195.1,157.59969 200,110.39974 V 89.60026 C 195.1,42.500308 157.59969,4.8999951 110.39974,0 Z M 100,5.5 c 52.09995,0 94.5,42.400052 94.5,94.5 0,52.09995 -42.40005,94.5 -94.5,94.5 C 47.900052,194.5 5.5,152.09995 5.5,100 5.5,47.900052 47.900052,5.5 100,5.5 Z"
         style="display:inline;opacity:1;fill:#2d2d2d"
         id="path28" />
    </g>
    <path
       d="m 52.820262,178.00234 q -6.212934,0 -10.637289,-4.42451 -4.424376,-4.42429 -4.424376,-10.63722 V 57.509141 H 52.820262 V 162.94061 h 82.839088 v 15.06173 z M 82.94357,147.87888 q -6.212933,0 -10.63731,-4.4243 -4.424355,-4.42428 -4.424355,-10.63722 V 27.385674 q 0,-6.212933 4.424355,-10.63722 4.424377,-4.424287 10.63731,-4.424287 h 52.71578 l 45.18495,45.184974 v 75.308219 q 0,6.21294 -4.42435,10.63722 -4.42436,4.4243 -10.6373,4.4243 z m 45.18495,-82.838985 h 37.65413 L 128.12852,27.385674 Z"
       id="path1-8"
       style="overflow:hidden;fill:#848484;fill-opacity:1;stroke:#2d2d2d;stroke-width:5.65533333;stroke-linejoin:round;stroke-dasharray:none;stroke-opacity:1;stroke-linecap:round;paint-order:normal" />
    <g
       id="svga-group-humanwrap-move"
       transform="translate(0,6)"
       sodipodi:insensitive="true">
      <g
         id="svga-group-humanwrap"
         transform="matrix(0.9499997,0,0,0.9499997,5.0152509,5.9916882)"
         style="display:inline">
        <g
           id="svga-group-humanbody-back"
           style="display:inline">
          <path
             id="SvgjsPath16974"
             d="m 77.6,118.3 c 0,19.3 3.4,44.1 -10,51.9 -13.4,7.9 -31.9,11.3 -37.8,22 -5.9,10.7 -4.4,25.3 -4.4,25.3 h 149.3 c 0,0 0.7,-18.9 -5.1,-26.4 -8.1,-10.4 -27.8,-15.5 -37.7,-20.9 -9.9,-5.4 -13.4,-25.1 -13.4,-52.4 z"
             fill="#ffffff"
             stroke-width="none"
             opacity="1"
             style="display:inline" />
        </g>
        <g
           id="svga-group-humanbody-front"
           style="display:inline">
          <path
             id="SvgjsPath16975"
             d="M 175.8,218.7 H 24.4 l -0.1,-1 c -0.1,-0.6 -1.5,-15.1 4.5,-26 4.1,-7.4 13.5,-11.3 23.5,-15.5 5,-2.1 10.2,-4.3 14.8,-6.9 10.6,-6.2 10.1,-23.9 9.6,-41 -0.1,-3.5 -0.2,-6.8 -0.2,-10 v -1.1 l 43.2,-0.4 v 1.1 c 0,29.9 4.2,46.7 12.8,51.4 2.9,1.6 6.7,3.2 10.8,4.9 10,4.1 21.3,8.8 27.2,16.3 6.1,7.7 5.4,26.4 5.4,27.1 z M 26.5,216.5 h 147.1 c 0,-4.1 -0.2,-18.5 -4.9,-24.6 -5.5,-7 -16.6,-11.6 -26.3,-15.6 -4.1,-1.7 -8,-3.3 -11,-5 -5.1,-2.8 -8.7,-8.9 -10.9,-18.7 -2,-8.4 -2.9,-19.4 -3,-33.5 l -38.6,0.4 c 0,2.8 0.1,5.7 0.2,8.8 0.5,17.8 1,36.1 -10.7,43 -4.7,2.7 -9.9,4.9 -15,7.1 -9.6,4 -18.7,7.8 -22.4,14.5 -5,8.6 -4.7,20.1 -4.5,23.6 z"
             fill="#000000"
             stroke-width="none"
             opacity="1" />
          <path
             id="SvgjsPath16976"
             d="m 93.9,153.8 c -0.5,1.8 -0.4,3.4 0.5,5.2 0.8,1.6 2.1,2.7 3.9,2.9 0.4,0 0.7,-0.5 0.5,-0.8 -1.6,-2.2 -3.5,-4.2 -3.7,-7.1 0,-0.7 -1,-0.9 -1.2,-0.2 z"
             fill="#000000"
             stroke-width="none"
             opacity="1" />
          <path
             id="SvgjsPath16977"
             d="m 112.5,187.5 c 8.8,0.5 18.1,-0.7 26.6,-2.9 0.7,-0.2 0.6,-1.4 -0.2,-1.3 -8.8,1.1 -17.7,2 -26.5,3.3 -0.5,0.1 -0.3,0.9 0.1,0.9 z"
             fill="#000000"
             stroke-width="none"
             opacity="1" />
          <path
             id="SvgjsPath16978"
             d="m 63.1,182.5 c 3.8,0.9 7.6,1.9 11.5,2.8 3.6,0.8 7.4,2 11.1,2.1 0.7,0 0.8,-0.9 0.2,-1.2 -3.5,-1.4 -7.5,-1.7 -11.2,-2.5 -3.8,-0.7 -7.5,-1.3 -11.3,-2 -0.5,0 -0.7,0.7 -0.3,0.8 z"
             fill="#000000"
             stroke-width="none"
             opacity="1" />
        </g>
        <g
           id="svga-group-clothes-single"
           style="display:inline">
          <path
             id="SvgjsPath17186"
             d="m 77.6,140.5 c 0,0 -8.6,2.8 -13.1,5.9 -4.5,3.1 -5.6,10 -5.6,10 0,0 -2.3,-3.3 -4.5,1.9 -2.2,5.2 -1.8,5.6 -4,7.9 -2.3,2.3 -1,6.8 -0.2,7.9 0,0 -4,2.8 -8.4,4 -4.4,1.2 -10.3,4.2 -12.1,6.6 -1.8,2.4 -9.6,12.8 -5.6,34 h 153.6 c 0,0 0,-21 -3,-27.5 -3,-6.5 -7.7,-7.5 -7.7,-7.5 0,0 -9.8,-7 -11.7,-8.2 -1.9,-1.2 -11,-4.2 -11,-4.2 0,0 -0.5,-4.2 -1.2,-7.2 -0.7,-3 -4.6,-8.1 -6.6,-8.4 -2.1,-0.4 -3,-2.8 -5.6,-7 -2.6,-4.2 -5.8,-6.5 -7.3,-7 -1.6,-0.5 -3.3,-0.2 -3.3,-0.2 0,0 1.2,8.9 1.2,13.6 0,4.7 -0.9,7.7 -4.6,12.2 -3.7,4.6 -6.1,5.8 -11.4,9.3 -5.3,3.5 -6.3,5.4 -6.3,5.4 0,0 -3.2,-5.1 -8.8,-8.6 C 84.8,169.9 83,166 79,162.5 c -4,-3.5 -1.1,-6.1 -1.4,-11.2 -0.3,-5.1 0,-10.8 0,-10.8 z"
             fill="#ffffff"
             stroke-width="none"
             opacity="1" />
          <path
             id="SvgjsPath17187"
             d="m 175.6,190.8 c -2.8,-6.1 -7.1,-7.7 -8.2,-8 -1.3,-0.9 -9.8,-7 -11.6,-8.1 -1.8,-1.1 -8.5,-3.4 -10.6,-4.1 -0.2,-1.3 -0.6,-4.3 -1.2,-6.6 -0.7,-3 -4.7,-8.7 -7.5,-9.1 -1.1,-0.2 -1.8,-1.3 -3.3,-3.9 -0.5,-0.8 -1,-1.6 -1.6,-2.6 -2.6,-4.2 -5.9,-6.8 -7.9,-7.4 -1.8,-0.6 -3.8,-0.2 -3.8,-0.2 -0.5,0.1 -0.9,0.6 -0.8,1.1 0,0.1 1.2,8.9 1.2,13.5 0,4.2 -0.7,7.1 -4.3,11.6 -3,3.8 -5.1,5.1 -9,7.6 -0.7,0.4 -1.4,0.9 -2.2,1.4 -3.1,2.1 -4.8,3.6 -5.7,4.6 -1.3,-1.8 -4.1,-5.1 -8.3,-7.7 -3.3,-2.1 -5.2,-4.4 -7.1,-6.6 -1.2,-1.4 -2.5,-2.9 -4.1,-4.4 -2.2,-1.9 -1.9,-3.4 -1.5,-5.7 0.3,-1.4 0.6,-2.9 0.4,-4.8 -0.3,-4.9 0,-10.7 0,-10.7 0,-0.3 -0.1,-0.6 -0.4,-0.9 -0.3,-0.2 -0.6,-0.3 -0.9,-0.2 -0.4,0.1 -8.8,2.9 -13.4,6.1 -3.5,2.4 -5,6.7 -5.7,9 -0.4,-0.2 -0.8,-0.3 -1.3,-0.2 -1.4,0.1 -2.5,1.3 -3.5,3.6 -0.7,1.7 -1.2,2.9 -1.5,3.8 -0.7,1.9 -0.9,2.4 -2.3,3.8 -2.2,2.2 -1.7,6.2 -0.8,8.3 -1.3,0.8 -4.3,2.5 -7.3,3.4 -4.6,1.3 -10.7,4.3 -12.6,7 l -0.1,0.2 c -6.4,8.9 -8.3,20.6 -5.6,34.6 0.1,0.5 0.5,0.8 1,0.8 h 153.6 c 0.6,0 1,-0.4 1,-1 0,-1.2 -0.1,-21.6 -3.1,-28.2 z m -33,-23.6 c 0.3,1.9 0.6,3.7 0.6,4.1 0,0.2 -0.1,0.8 -0.6,1.6 0.3,-1.8 0.2,-3.8 0,-5.7 z m -20.7,-19.4 c 0.5,0.2 1.2,0.5 1.9,0.9 -0.2,0.1 -0.3,0.1 -0.5,0.1 l -1.2,0.3 c -0.2,-0.5 -0.2,-0.9 -0.2,-1.3 z m -0.1,12.5 h 1.5 c -0.6,0.4 -1.3,1 -2,1.6 0.2,-0.5 0.4,-1 0.5,-1.6 z m 4.2,-3.1 c -1.2,0.1 -2.6,0.4 -3.8,0.6 0.1,-0.5 0.1,-1 0.1,-1.5 1.3,-0.1 2.7,-0.3 3.9,-0.5 0,0.5 -0.1,1 -0.2,1.4 z m 0.1,-5 c 0.1,0.5 0.1,0.9 0.1,1.3 -1.3,0 -2.7,0.4 -3.9,0.8 0,-0.5 0,-1 -0.1,-1.5 1.3,-0.2 2.7,-0.3 3.9,-0.6 z m -3.8,3.6 v -1.1 c 0.7,-0.2 1.4,-0.3 2.2,-0.4 0.6,-0.1 1.2,-0.1 1.8,-0.2 v 1.1 c -1.3,0 -2.7,0.3 -4,0.6 z m -0.1,-3.5 c 0,-0.4 -0.1,-0.8 -0.1,-1.1 0.6,-0.1 1.1,-0.1 1.7,-0.2 0.6,-0.1 1.2,-0.2 1.7,-0.3 0.2,0.3 0.3,0.6 0.4,1 -1.2,0 -2.5,0.3 -3.7,0.6 z m 1.9,-2 c -0.6,0.1 -1.3,0.2 -1.9,0.4 0,-0.3 -0.1,-0.7 -0.1,-1 0.4,-0.1 0.9,-0.2 1.3,-0.3 0.3,-0.1 0.7,-0.1 1,-0.3 l 0.9,0.9 c -0.5,0.1 -0.9,0.2 -1.2,0.3 z m -1.9,8 c 1.1,-0.1 2.4,-0.2 3.5,-0.4 -0.3,0.7 -0.9,1.3 -1.6,1.8 -0.7,0 -1.5,0.1 -2.2,0.1 z M 76,159.6 c -1.2,-1.1 -2.3,-2.2 -2.7,-3.1 -0.1,-0.1 -0.1,-0.2 -0.1,-0.4 0.9,0.7 1.8,1.5 2.8,2.1 -0.1,0.5 -0.1,1 0,1.4 z m -0.5,-10.9 c 0.3,0.4 0.7,0.7 1.1,1 0,0.4 0,0.9 0.1,1.3 -0.3,-0.2 -0.5,-0.4 -0.8,-0.6 -0.4,-0.3 -0.7,-0.6 -1.1,-0.9 0.1,-0.2 0.4,-0.5 0.7,-0.8 z m 0.3,-0.3 c 0.2,-0.2 0.4,-0.3 0.6,-0.4 v 1 c -0.1,-0.2 -0.3,-0.4 -0.6,-0.6 z m -1.4,1.5 c 0.4,0.4 0.8,0.7 1.2,1 0.3,0.3 0.6,0.6 1,0.8 v 1 c -0.8,-0.7 -1.8,-1.4 -2.7,-2 0.2,-0.2 0.3,-0.5 0.5,-0.8 z m -0.7,1.4 c 0.9,0.8 1.8,1.7 2.8,2.3 0,0.3 -0.1,0.6 -0.1,0.9 -0.4,-0.3 -0.9,-0.6 -1.4,-0.9 -0.6,-0.4 -1.2,-0.8 -1.7,-1.2 0.1,-0.4 0.3,-0.8 0.4,-1.1 z m -0.5,1.5 c 0.5,0.4 1.1,0.8 1.6,1.2 0.5,0.4 1,0.8 1.6,1.1 0,0.2 -0.1,0.4 -0.1,0.5 0,0.1 -0.1,0.3 -0.1,0.4 -0.5,-0.3 -1,-0.6 -1.4,-0.9 L 73,153.9 c 0,-0.3 0.1,-0.7 0.2,-1.1 z m 2.7,4.8 C 75,156.8 74,156.1 73,155.5 v -1 c 0.4,0.4 0.9,0.7 1.4,1.1 0.5,0.4 1.1,0.8 1.7,1.2 -0.1,0.2 -0.1,0.5 -0.2,0.8 z m -22.1,4.8 c 0.3,-0.9 0.8,-2 1.5,-3.7 0.9,-2.1 1.6,-2.3 1.8,-2.4 0.3,0 0.6,0.2 0.8,0.4 0.1,2.2 1.5,13.1 16.7,21.5 0.2,0.1 0.3,0.1 0.5,0.1 0.3,0 0.7,-0.2 0.8,-0.5 0.1,0.2 0.2,0.5 0.3,0.7 0.1,0.1 0.3,0.1 0.3,-0.1 -0.2,-2 -0.6,-3.7 -0.3,-5.7 0,-0.2 -0.3,-0.4 -0.4,-0.1 -0.2,1.2 -0.4,2.5 -0.2,3.8 l -0.1,-0.1 c -0.1,-0.1 -0.2,-0.1 -0.3,-0.2 -0.3,-1.7 -0.5,-3.3 -0.4,-5 0,-0.3 -0.4,-0.3 -0.4,0 -0.2,1.5 -0.2,3.1 0.1,4.6 -0.4,-0.3 -0.9,-0.5 -1.3,-0.8 -0.2,-0.5 -0.3,-1.1 -0.4,-1.6 -0.2,-1.1 -0.1,-2.1 0.1,-3.1 0,-0.2 -0.3,-0.3 -0.3,-0.1 -0.3,1.3 -0.4,3 0,4.4 -0.4,-0.2 -0.7,-0.5 -1,-0.7 -0.1,-2.3 -0.2,-4.5 0.1,-6.8 0,-0.3 -0.4,-0.2 -0.4,0 -0.3,2.1 -0.4,4.2 -0.2,6.4 -0.6,-0.4 -1.2,-0.9 -1.7,-1.4 -0.1,-2.1 -0.1,-4.2 0.3,-6.4 0,-0.2 -0.2,-0.3 -0.3,-0.1 -0.5,2 -0.7,4 -0.6,6 -0.4,-0.4 -0.8,-0.8 -1.2,-1.1 0,-1 -0.1,-2.1 0,-3.1 0.1,-1.4 0.4,-2.8 0.8,-4.1 0.1,-0.2 -0.2,-0.3 -0.3,-0.1 -0.7,2 -1.3,4.5 -1,6.7 -0.4,-0.4 -0.7,-0.8 -1.1,-1.1 -0.2,-1 0.2,-3.2 0.2,-3.5 0.2,-1.4 0.5,-2.7 1,-4 0.1,-0.2 -0.2,-0.2 -0.3,-0.1 -0.8,2.3 -1.3,4.7 -1.4,7.1 -0.3,-0.3 -0.5,-0.6 -0.8,-1 0.1,-0.1 0.1,-0.2 0.1,-0.2 0.1,-0.1 -0.1,-0.3 -0.2,-0.2 0.2,-2.9 0.8,-5.8 1.8,-8.5 0.1,-0.2 -0.2,-0.3 -0.3,-0.1 -1,2.7 -1.7,5.5 -1.9,8.3 -0.3,-0.5 -0.6,-0.9 -0.9,-1.4 0.7,-2.8 1.1,-5.7 2.1,-8.5 0.1,-0.3 -0.3,-0.4 -0.4,-0.1 -0.9,2.5 -1.8,5.3 -2,8 -0.4,-0.6 -0.7,-1.2 -1,-1.8 0.7,-3 1.1,-5.8 2.5,-8.6 0.1,-0.2 -0.2,-0.4 -0.3,-0.2 -1.3,2.4 -2.4,5.3 -2.6,8.1 -0.3,-0.8 -0.6,-1.6 -0.8,-2.2 1.2,-2.8 1.9,-5.8 3.1,-8.6 0.1,-0.2 -0.2,-0.4 -0.3,-0.2 -1.2,2.5 -2.6,5.3 -3.1,8 -0.3,-1.4 -0.4,-2.3 -0.4,-2.6 1.2,-2.5 2.1,-5.1 3.3,-7.6 0.5,-0.6 1.1,-1.2 1.8,-1.7 3.3,-2.3 8.9,-4.4 11.5,-5.3 0,1 -0.1,2.4 -0.1,3.9 -1.9,0.7 -3.5,2.3 -4.5,4.5 -1.1,2.5 -1.3,5.3 -0.5,7.1 1.1,2.4 5.2,5.4 8.7,7.8 0.3,0.2 0.5,0.3 0.6,0.4 l 1.5,1.8 c 2,2.3 4,4.8 7.6,7 5.3,3.3 8.4,8.2 8.4,8.2 0.2,0.3 0.5,0.5 0.9,0.5 0.3,0 0.7,-0.2 0.8,-0.5 0,0 1.1,-1.8 6,-5.1 0.8,-0.5 1.5,-1 2.2,-1.4 3.2,-2.1 5.4,-3.5 7.8,-6.2 0.2,0 0.4,-0.1 0.5,-0.3 0.1,-0.1 5.5,-6.1 8.3,-7.9 3.5,-2.4 3.9,-5.5 3.3,-9.8 -0.6,-4.3 -5,-5.9 -6.5,-6.3 -0.2,-1.3 -0.3,-2.4 -0.4,-3.2 0.5,0 1.2,0 1.9,0.2 1.4,0.5 4.3,2.6 6.8,6.6 0.6,0.9 1.1,1.8 1.5,2.6 0,0 0,0.1 0.1,0.1 l -0.7,-0.7 c -0.1,-0.1 -0.3,0.1 -0.2,0.2 0.7,0.8 1.3,1.7 2,2.5 v 0.1 c 0,0 0.3,1.1 0.3,2.9 -0.5,-0.8 -1.1,-1.6 -1.4,-2.5 -0.1,-0.2 -0.4,-0.1 -0.4,0.1 0.4,1.2 0.9,2.4 1.8,3.3 0,0.3 0,0.7 -0.1,1.1 -0.5,-0.7 -1.1,-1.3 -1.5,-1.9 -0.1,-0.2 -0.5,0 -0.3,0.2 0.5,0.7 0.9,1.4 1.4,2.1 0.1,0.2 0.2,0.3 0.3,0.5 -0.1,0.6 -0.2,1.2 -0.3,1.9 -0.5,-0.6 -1,-1.2 -1.4,-1.8 -0.1,-0.2 -0.4,0.1 -0.3,0.2 0.5,0.7 1,1.6 1.6,2.3 -0.1,0.5 -0.3,1.1 -0.6,1.7 -0.2,-0.4 -0.4,-0.9 -0.5,-1.3 -0.1,-0.2 -0.5,-0.1 -0.4,0.1 0.2,0.6 0.4,1.4 0.6,2.1 -0.2,0.5 -0.5,1.1 -0.9,1.6 -0.1,-0.3 -0.1,-0.6 -0.1,-0.9 0,-0.3 -0.4,-0.3 -0.4,0 0,0.5 0.1,1.1 0.1,1.6 -0.4,0.5 -0.8,1.1 -1.2,1.6 -0.1,-0.6 -0.2,-1.3 -0.3,-1.9 0,-0.2 -0.4,-0.2 -0.4,0.1 0.1,0.8 0.1,1.6 0.2,2.3 -0.4,0.4 -0.8,0.9 -1.2,1.3 0,-0.8 -0.1,-1.5 -0.2,-2.3 0,-0.3 -0.4,-0.3 -0.4,0 0,0.9 -0.1,1.9 0,2.9 -0.3,0.3 -0.6,0.6 -0.9,0.8 0,-0.2 0,-0.5 -0.1,-0.7 0,-0.8 -0.1,-1.5 -0.1,-2.2 0,-0.3 -0.4,-0.3 -0.4,0 0,0.8 0,1.5 0.1,2.2 v 1.2 c -0.4,0.4 -0.9,0.7 -1.3,1.1 0,-0.2 -0.1,-0.4 -0.1,-0.7 0,-0.6 0,-1.1 0.1,-1.7 0,-0.3 -0.3,-0.4 -0.4,-0.1 -0.2,0.9 -0.4,2 -0.1,2.9 -0.3,0.3 -0.7,0.5 -1,0.8 0,-0.4 -0.1,-0.8 -0.1,-1.2 0,-0.3 -0.5,-0.3 -0.5,0 v 1.6 c -0.4,0.3 -0.7,0.5 -1.1,0.8 0,-0.4 -0.1,-0.9 -0.1,-1.3 0,-0.3 -0.5,-0.3 -0.5,0 0,0.6 0,1.1 0.1,1.6 -0.4,0.3 -0.8,0.5 -1.1,0.7 v -1.8 c 0,-0.3 -0.4,-0.3 -0.4,0 0,0.6 -0.1,1.1 -0.1,1.7 v 0.5 c -0.4,0.2 -0.7,0.4 -1.1,0.6 v -1.4 c 0,-0.3 -0.4,-0.2 -0.4,0 -0.1,0.5 -0.1,1.1 -0.1,1.6 -0.2,0.1 -0.5,0.2 -0.7,0.3 -0.1,0 -0.1,0 -0.1,0.1 0,-0.4 0.1,-0.7 0.1,-1.1 0,-0.2 -0.4,-0.2 -0.4,0 -0.1,0.4 -0.1,0.8 -0.2,1.3 -0.3,0.1 -0.7,0.3 -1,0.4 v -1.3 c 0,-0.2 -0.4,-0.2 -0.4,0 0,0.5 -0.1,1 -0.2,1.5 -0.5,0.2 -1,0.4 -1.4,0.5 v -1 c 0,-0.3 -0.4,-0.3 -0.4,0 0,0.4 -0.1,0.8 -0.1,1.2 -0.3,0.1 -0.6,0.2 -0.8,0.3 0,-0.4 0.1,-0.7 0.1,-1.1 0,-0.2 -0.4,-0.3 -0.4,-0.1 -0.1,0.4 -0.1,0.9 -0.2,1.3 -0.2,0.1 -0.4,0.1 -0.4,0.1 -0.5,0.2 -0.8,0.7 -0.7,1.2 0.1,0.4 0.5,0.7 1,0.7 h 0.3 c 0.1,0 1.5,-0.5 4.4,-1.6 v 0.1 c 0,0.2 0.3,0.1 0.3,0 0,-0.1 0,-0.1 0.1,-0.2 0.4,-0.1 0.7,-0.3 1.1,-0.4 3.7,-1.5 13.6,-8.3 16.3,-15 1.5,-3.6 1.7,-6.9 1.6,-9 0.4,0.2 0.8,0.4 1.2,0.4 1.4,0.2 5,4.6 5.8,7.4 -0.1,0 -0.2,0.1 -0.2,0.2 0.3,3.2 0.1,6.4 0.2,9.5 -0.2,0.2 -0.4,0.5 -0.6,0.7 v -8.7 c 0,-0.2 -0.4,-0.2 -0.4,0 -0.1,3.1 -0.2,6.2 -0.2,9.3 l -0.5,0.5 c 0,-2.4 -0.3,-4.8 -0.4,-7.2 0,-0.2 -0.4,-0.3 -0.4,0 0.1,2.6 -0.1,5.2 0.2,7.8 -0.2,0.1 -0.4,0.3 -0.5,0.4 0.1,-2 0,-4.1 -0.1,-6.1 0,-0.2 -0.4,-0.2 -0.4,0 -0.1,2.2 -0.4,4.5 -0.3,6.7 -0.2,0.2 -0.5,0.3 -0.7,0.5 0.2,-2 0.1,-4 0,-6 0,-0.2 -0.4,-0.2 -0.4,0 0,2.1 -0.2,4.3 -0.3,6.4 -0.4,0.2 -0.9,0.5 -1.4,0.7 0.2,-1.9 0,-3.9 0,-5.8 0,-0.3 -0.4,-0.3 -0.4,0 -0.1,2 -0.3,4.1 -0.2,6.1 -0.4,0.2 -0.8,0.4 -1.3,0.6 0.2,-1.3 0.2,-2.7 0.3,-4 0,-0.3 -0.4,-0.3 -0.4,0 -0.2,1.4 -0.5,2.9 -0.6,4.3 -0.4,0.2 -0.9,0.4 -1.3,0.5 0.2,-1.4 0.2,-2.9 0.6,-4.3 0.1,-0.3 -0.4,-0.4 -0.4,-0.1 -0.3,1.4 -0.8,3.1 -0.9,4.7 -0.5,0.2 -0.9,0.3 -1.4,0.5 0.1,-1.2 0,-2.6 0.1,-3.8 0,-0.3 -0.4,-0.3 -0.4,0 -0.1,1.2 -0.4,2.7 -0.3,4 -0.6,0.2 -1.3,0.4 -1.9,0.7 0,-0.4 0,-0.9 0.1,-1.3 0.1,-0.9 0.3,-1.7 0.6,-2.5 0.1,-0.2 -0.3,-0.3 -0.4,-0.1 -0.5,1.2 -1,2.7 -1,4.1 l -0.9,0.3 v -0.1 c 0.1,-0.7 0.1,-1.4 0,-2.1 0,-0.3 -0.5,-0.3 -0.5,0 0,0.7 0,1.3 -0.1,2 0,0.1 -0.1,0.3 -0.1,0.5 -0.4,0.1 -0.8,0.3 -1.2,0.4 0.1,-0.6 0.1,-1.2 0.1,-1.8 0,-0.3 -0.4,-0.3 -0.5,0 -0.1,0.6 -0.2,1.3 -0.3,2 -0.5,0.1 -1,0.3 -1.5,0.5 v -1 c 0,-0.3 -0.5,-0.3 -0.4,0 v 1.2 c -0.5,0.2 -1,0.3 -1.5,0.5 0.1,-0.5 0.3,-1.1 0.4,-1.6 0.1,-0.3 -0.3,-0.4 -0.4,-0.1 -0.2,0.6 -0.4,1.3 -0.6,1.9 -0.4,0.1 -0.8,0.2 -1.2,0.4 0.1,-0.6 0.2,-1.1 0.3,-1.6 0.1,-0.3 -0.4,-0.4 -0.4,-0.1 -0.2,0.6 -0.4,1.3 -0.5,1.9 -0.2,0.1 -0.4,0.1 -0.6,0.2 0.1,-0.4 0.2,-0.9 0.4,-1.3 0.1,-0.2 -0.3,-0.4 -0.4,-0.1 -0.2,0.5 -0.4,1 -0.6,1.6 -0.2,0.1 -0.3,0.1 -0.5,0.1 0,-0.2 0.1,-0.4 0.1,-0.6 0.1,-0.2 -0.3,-0.3 -0.3,-0.1 -0.1,0.3 -0.2,0.5 -0.3,0.8 -0.5,0.1 -0.9,0.3 -1.3,0.4 0,-0.1 -0.2,-0.2 -0.3,0 0,0.1 -0.1,0.1 -0.1,0.1 -0.8,0.2 -1.6,0.4 -2.2,0.6 -1.6,0.4 -2.7,0.8 -3.1,0.9 -0.3,0.1 -1.2,0.2 -2.4,0.2 -0.2,-1.3 -0.6,-2.7 -1.5,-4.8 -0.2,-0.5 -0.8,-0.7 -1.3,-0.5 -0.5,0.2 -0.7,0.8 -0.5,1.3 0.8,1.7 1.1,2.9 1.3,3.9 H 101 c -0.3,-0.4 -0.6,-0.7 -1,-1 -0.2,-0.2 -0.5,0.1 -0.3,0.3 l 0.7,0.7 h -1.2 c -0.2,-0.2 -0.4,-0.5 -0.6,-0.7 -0.4,-0.6 -0.7,-1.2 -0.9,-1.9 -0.1,-0.3 -0.5,-0.2 -0.4,0.1 0.2,0.8 0.6,1.7 1.1,2.5 -0.4,0 -0.9,0 -1.3,-0.1 -0.1,-1.8 -0.1,-3.5 -0.1,-4.4 0,-0.6 -0.4,-1 -1,-1 -0.6,0 -1,0.4 -1,1 0,0.4 0,2.2 0.1,4.3 h -0.2 c -0.3,-0.4 -0.7,-0.8 -0.9,-1.3 -0.4,-0.7 -0.6,-1.5 -0.7,-2.3 0,-0.2 -0.4,-0.3 -0.4,0 0.1,1.1 0.4,2.6 1.2,3.5 -0.5,0 -0.9,-0.1 -1.4,-0.1 -0.2,-0.4 -0.5,-0.9 -0.7,-1.3 -0.3,-0.7 -0.5,-1.5 -0.5,-2.3 0,-0.2 -0.4,-0.3 -0.4,0 0,1.1 0.3,2.6 1,3.6 -0.3,0 -0.5,0 -0.8,-0.1 -0.2,-0.6 -0.7,-1.1 -0.9,-1.7 -0.3,-0.7 -0.4,-1.4 -0.4,-2.1 0,-0.3 -0.4,-0.3 -0.4,0 -0.1,1.1 0.2,2.9 1.1,3.8 -0.4,0 -0.8,-0.1 -1.3,-0.1 -0.3,-0.6 -0.8,-1.2 -1.1,-1.8 -0.3,-0.8 -0.5,-1.6 -0.5,-2.4 0,-0.3 -0.4,-0.3 -0.4,0 0,1.3 0.3,3.1 1.3,4.1 -0.6,-0.1 -1.2,-0.1 -1.8,-0.2 -0.3,-0.4 -0.5,-0.9 -0.7,-1.4 -0.3,-0.8 -0.4,-1.6 -0.5,-2.4 0,-0.3 -0.5,-0.3 -0.4,0 0,1.2 0.3,2.6 0.9,3.7 -0.4,-0.1 -0.9,-0.1 -1.3,-0.2 -0.2,-0.4 -0.5,-0.9 -0.7,-1.4 -0.3,-0.8 -0.5,-1.5 -0.5,-2.3 0,-0.3 -0.4,-0.3 -0.4,0 0.1,1.2 0.3,2.5 1,3.6 -0.5,-0.1 -0.9,-0.1 -1.3,-0.2 -0.4,-0.6 -0.8,-1.1 -1,-1.7 -0.4,-0.8 -0.6,-1.7 -0.8,-2.6 0,-0.2 -0.4,-0.1 -0.3,0.1 0.1,1.3 0.5,3 1.3,4.1 -0.7,-0.1 -1.3,-0.3 -1.8,-0.4 -1,-1.4 -1.8,-2.7 -2.2,-4.5 -0.1,-0.2 -0.3,-0.1 -0.3,0.1 0.2,1.4 0.8,2.9 1.7,4.1 -0.2,-0.1 -0.5,-0.2 -0.6,-0.3 -0.3,-0.2 -0.8,-0.4 -1.3,-0.6 -0.7,-1.5 -1.4,-3 -1.8,-4.7 -0.1,-0.3 -0.5,-0.2 -0.4,0.1 0.2,1.4 0.6,2.9 1.3,4.1 -0.3,-0.1 -0.7,-0.3 -1,-0.4 -0.8,-1.6 -1.6,-3 -1.9,-4.9 0,-0.2 -0.4,-0.2 -0.4,0.1 0.2,1.5 0.6,3.2 1.4,4.5 -0.3,-0.1 -0.6,-0.2 -0.9,-0.4 -0.4,-0.8 -0.8,-1.5 -1.1,-2.2 -0.4,-1.1 -0.7,-2.2 -0.8,-3.3 0,-0.3 -0.5,-0.2 -0.5,0.1 0.2,1.6 0.6,3.6 1.5,5.1 l -1.5,-0.6 c -0.3,-0.7 -0.7,-1.3 -1,-2 -0.4,-0.9 -0.7,-1.9 -0.9,-2.9 -0.1,-0.3 -0.5,-0.2 -0.4,0.1 0.3,1.4 0.7,3.2 1.6,4.5 -0.2,-0.1 -0.4,-0.1 -0.5,-0.2 -0.5,-0.2 -1,-0.4 -1.6,-0.6 -0.9,-1.5 -1.5,-3 -1.8,-4.8 0,-0.2 -0.4,-0.2 -0.4,0.1 0,1.5 0.5,3.1 1.3,4.4 -0.7,-0.3 -1.4,-0.6 -2.1,-0.8 -0.8,-1.7 -1.5,-3.4 -1.7,-5.3 0,-0.3 -0.4,-0.3 -0.4,0 0.1,1.7 0.5,3.5 1.3,5 -0.4,-0.2 -0.8,-0.3 -1.2,-0.5 -0.5,-0.8 -1,-1.5 -1.4,-2.4 -0.5,-1.2 -0.8,-2.5 -0.9,-3.8 0,-0.3 -0.4,-0.3 -0.4,0 0.1,1.9 0.6,4.1 1.7,5.8 -0.6,-0.3 -1.3,-0.5 -1.9,-0.8 -1.2,-2.1 -2.1,-4 -2.2,-6.6 0,-0.3 -0.4,-0.3 -0.4,0 0,2.1 0.5,4.4 1.6,6.1 -0.5,-0.2 -1.1,-0.5 -1.6,-0.7 -1.3,-2.3 -2.1,-4.5 -2,-7.2 0,-0.3 -0.4,-0.3 -0.4,0 -0.2,2.3 0.3,4.8 1.6,6.8 -0.3,-0.2 -0.7,-0.3 -1,-0.5 -1.3,-2.7 -2.2,-5.2 -2.2,-8.2 0,-0.3 -0.4,-0.3 -0.4,0 -0.1,2.7 0.5,5.6 1.9,7.9 -0.7,-0.4 -1.3,-0.7 -1.9,-1 -1.6,-2.4 -2.2,-4.8 -2,-7.9 v -0.1 c 0.8,-1.9 1.1,-2.7 1.9,-4.7 z m -3.3,5.3 c -0.3,2.1 0.2,4.4 1.3,6.3 -0.3,-0.2 -0.6,-0.4 -0.8,-0.6 -0.6,-0.7 -1.5,-3.7 -0.5,-5.7 z M 33.2,183 c 0.3,0.9 0.8,2.5 1.4,4.6 -0.7,-0.3 -1.5,-0.5 -2.1,-0.9 -0.7,-0.4 -1.3,-1 -1.8,-1.6 0.5,-0.7 1.4,-1.4 2.5,-2.1 z m -2.8,2.5 c 1.1,1.3 2.7,2.5 4.4,2.6 0.2,0.8 0.5,1.7 0.7,2.7 l -0.1,-0.1 C 33,189.8 31,188.9 29.2,187.3 Z m -6.2,27.4 c 3.5,2.2 7.7,4.1 11.8,4.8 H 24.9 c -0.3,-1.6 -0.5,-3.2 -0.7,-4.8 z m 12.9,4.8 c 0,-0.1 0,-0.2 -0.1,-0.3 -4.5,-1.5 -8.6,-2.9 -12.8,-5.1 -0.1,-0.9 -0.1,-1.9 -0.2,-2.8 4.6,2.7 10,5.1 15.2,6.1 0.2,0 0.3,-0.2 0.1,-0.3 -5.1,-2.2 -10.2,-4.2 -15.3,-6.5 v -2.9 c 3.5,2.5 7.6,4.5 11.9,5.4 0.3,0.1 0.4,-0.4 0.1,-0.5 -4.2,-1.6 -8.2,-3.2 -12,-5.5 0,-1.2 0.1,-2.3 0.3,-3.4 2.9,1.7 5.9,3.1 9.1,4 0.3,0.1 0.4,-0.4 0.1,-0.5 -3.1,-1.3 -6.2,-2.6 -9.2,-4.1 0.1,-0.9 0.3,-1.8 0.4,-2.6 3,2.4 6.6,4.4 10.4,5 0.2,0 0.3,-0.2 0.1,-0.3 -3.7,-1.5 -7.1,-3.1 -10.4,-5.2 l 0.6,-2.4 c 2.8,1.9 5.8,3.8 9,4.7 0.2,0.1 0.3,-0.2 0.1,-0.3 -3,-1.7 -6,-3.1 -8.9,-4.9 0.3,-0.9 0.5,-1.7 0.9,-2.5 2.4,1.8 5.3,3.1 8.3,3.6 0.3,0 0.4,-0.3 0.1,-0.4 -2.9,-1 -5.6,-2.2 -8.2,-3.8 0.2,-0.6 0.5,-1.2 0.8,-1.8 2.2,2 4.9,3.6 7.8,3.9 0.2,0 0.2,-0.2 0,-0.3 -2.8,-1.1 -5.3,-2.2 -7.6,-4.1 0.4,-0.7 0.7,-1.4 1.1,-2.1 1.7,1.8 4.1,3.1 6.5,3.3 0.1,0 0.1,0 0.2,-0.1 1.4,5.9 3.1,14.8 4.1,26.7 z m 4.5,0 C 39.9,196.6 36,184.9 35,182 c 2.2,-1.2 4.9,-2.3 7,-2.9 3.5,-1 6.7,-2.9 8.1,-3.7 3.3,2.5 11.8,5.9 18.6,8.6 3.8,1.5 7.2,2.8 8.6,3.6 2.4,1.3 10.3,2.2 17.6,2.6 0.2,1.5 0.4,2.9 0.7,3.8 0.7,1.9 0.5,3.3 -0.2,7.5 l -0.3,1.8 c -0.3,1.9 -0.7,3.4 -1.1,4.8 -0.7,2.6 -1.3,4.6 -0.2,6.8 0.2,0.4 0.5,0.6 0.9,0.6 0.1,0 0.3,0 0.4,-0.1 0.5,-0.2 0.7,-0.8 0.5,-1.3 -0.8,-1.6 -0.3,-3 0.3,-5.4 0.4,-1.3 0.8,-3 1.2,-5 l 0.3,-1.8 c 0.7,-4.3 1,-6.1 0.1,-8.5 -0.2,-0.6 -0.4,-1.8 -0.6,-3 2.3,0.1 4.5,0.2 6.4,0.2 0,0.5 -0.1,1.1 -0.1,1.7 -0.1,0.7 -0.1,1.5 -0.2,2.4 -0.2,4.4 0.8,10 0.9,10.9 l -0.2,9 c 0,0.6 0.4,1 1,1 0.5,0 1,-0.4 1,-1 l 0.2,-9.1 v -0.2 c 0,-0.1 -1.1,-6 -0.9,-10.5 0,-0.9 0.1,-1.7 0.2,-2.4 0.1,-0.7 0.1,-1.3 0.1,-1.9 1.5,0 2.5,-0.1 2.9,-0.3 0.4,-0.1 1.5,-0.4 3,-0.9 2.4,-0.7 5.7,-1.6 9.2,-2.7 0.1,0.1 0.3,0.1 0.4,0 l 0.1,-0.1 c 6.8,-2.1 14.4,-4.6 17.7,-6.8 4.4,-2.9 5.9,-5.5 6.4,-7 3,1 8.4,2.9 9.8,3.8 1.6,1 9.1,6.4 11.1,7.8 -0.6,3.2 -3.3,18.3 -2.9,33.6 z m 123.3,-1.3 c 0.9,0.5 1.8,0.9 2.8,1.3 H 165 c 0,-0.4 0,-0.9 -0.1,-1.3 z m 4.4,1.3 c -1.4,-0.7 -2.9,-1.4 -4.4,-1.9 v -3.1 c 2.8,2 6,3.5 9.3,4 0.3,0 0.4,-0.4 0.1,-0.4 -3.4,-1.1 -6.5,-2.3 -9.4,-4.2 0,-1.1 0.1,-2.1 0.1,-3.2 2.6,1.2 5.3,2.4 8,3.2 0.2,0.1 0.4,-0.3 0.2,-0.4 -2.6,-1.3 -5.4,-2.4 -8.1,-3.4 0.1,-1.1 0.1,-2.1 0.2,-3.1 2.3,1.5 4.8,2.8 7.4,3.6 0.2,0.1 0.4,-0.3 0.2,-0.4 -2.6,-1.2 -5.1,-2.3 -7.6,-3.8 0.1,-0.9 0.1,-1.8 0.2,-2.7 1.8,1.7 4.7,2.7 7.1,2.8 0.2,0 0.3,-0.3 0.1,-0.4 -1.4,-0.4 -2.8,-0.8 -4.2,-1.4 -1,-0.5 -1.9,-1.1 -2.9,-1.7 0.1,-0.9 0.2,-1.7 0.2,-2.6 2.1,1.2 4.2,2.5 6.4,3.3 0.2,0.1 0.3,-0.2 0.1,-0.3 -2,-1.4 -4.3,-2.4 -6.5,-3.4 0.1,-1.1 0.2,-2.1 0.4,-3 1.6,1.1 3.2,2.2 4.9,3.1 0.2,0.1 0.3,-0.1 0.1,-0.2 -1.6,-1.2 -3.3,-2.3 -5,-3.2 0.3,-2.3 0.6,-4.3 0.8,-6 1,0.9 2,1.8 3.1,2.5 0.2,0.1 0.4,-0.1 0.2,-0.3 -0.9,-1 -2.1,-1.9 -3.2,-2.7 0.2,-1.4 0.4,-2.5 0.6,-3.2 1.4,0.7 4.1,2.4 6,6.6 2.5,5.4 2.8,21.9 2.9,26.1 z M 167,191.8 c -0.3,-0.1 -0.4,0.2 -0.2,0.4 1.2,0.9 2.5,1.9 3.8,2.4 0.2,0.1 0.5,-0.2 0.3,-0.4 -1.2,-1 -2.6,-1.8 -3.9,-2.4 z M 79.6,179.6 c -0.1,-0.8 -0.4,-1.6 -0.6,-2.5 -0.2,-1 -0.2,-1.9 -0.1,-2.9 0,-0.3 -0.4,-0.3 -0.4,0 -0.2,1.7 -0.1,4 0.8,5.5 0.1,0.2 0.3,0.1 0.3,-0.1 z m 1.9,0.9 c 0.1,-1.6 -0.3,-3.4 -0.5,-5 0,-0.3 -0.4,-0.3 -0.4,0 0.1,1.7 0.1,3.5 0.5,5.1 0.1,0.2 0.4,0.1 0.4,-0.1 z m 1.2,0.1 c 0.1,-1.3 -0.3,-2.7 -0.5,-4.1 0,-0.2 -0.3,-0.1 -0.3,0.1 0.1,1.3 0.1,2.8 0.5,4.1 0,0.2 0.3,0.1 0.3,-0.1 z m 2,1 c -0.2,-1.5 -0.8,-2.8 -1,-4.3 0,-0.3 -0.4,-0.3 -0.4,0 0.1,1.4 0.3,3.2 1.1,4.4 0.1,0.2 0.3,0.1 0.3,-0.1 z m 2.1,0.2 c 0.1,0.1 0.2,-0.1 0.1,-0.2 -0.3,-0.3 -0.6,-0.6 -0.8,-1 -0.2,-0.4 -0.4,-0.8 -0.4,-1.2 0,-0.3 -0.5,-0.2 -0.4,0.1 0,0.9 0.5,2 1.5,2.3 z m 2.4,0.7 c 0.1,0.1 0.3,0 0.3,-0.2 -0.4,-0.9 -1.1,-1.8 -1.7,-2.6 -0.2,-0.2 -0.6,0 -0.4,0.2 0.6,0.9 1.1,1.8 1.8,2.6 z m 19,0.3 c 0.2,-0.5 0.2,-1.2 0.2,-1.8 0,-0.2 -0.4,-0.2 -0.4,0 -0.1,0.6 -0.3,1.2 -0.1,1.8 0.1,0.1 0.3,0.1 0.3,0 z m 1.3,-0.4 c 0.2,-0.4 0.2,-0.8 0.3,-1.2 0.1,-0.5 0.2,-0.9 0.3,-1.4 0.1,-0.3 -0.3,-0.4 -0.4,-0.1 l -0.3,1.5 c -0.1,0.4 -0.2,0.8 -0.1,1.2 -0.1,0.1 0.1,0.2 0.2,0 z"
             fill="#000000"
             stroke-width="none"
             opacity="1" />
        </g>
        <g
           id="svga-group-head"
           style="display:inline">
          <g
             id="svga-group-ears-left-move">
            <g
               id="svga-group-ears-left">
              <path
                 id="SvgjsPath16993"
                 d="M 60.8,80.5 C 60.6,80.2 57.5,76.2 54.9,73.8 52.3,71.4 51.5,71.4 50.3,72.9 49,74.4 47.4,82 47.8,85.3 48.2,88.7 51.4,94 53,97 c 1.7,3 3.3,6.7 5.1,6.3 1.9,-0.4 4.4,-4.6 5.7,-7.7 1.2,-3.1 0.6,-10.9 -3,-15.1 z"
                 fill="#ffffff"
                 stroke-width="none"
                 opacity="1" />
              <path
                 id="SvgjsPath16994"
                 d="m 52.9,98.9 c -0.3,-0.5 -0.5,-1 -0.8,-1.4 l -0.6,-1 c -1.8,-3.1 -4.4,-7.8 -4.8,-11 -0.4,-3.5 1.2,-11.4 2.7,-13.2 0.6,-0.7 1.2,-1.3 2.2,-1.4 1.2,-0.1 2.3,0.7 3.9,2.2 1.6,1.4 3.5,3.6 5.8,6.5 l 0.2,0.3 c 3.9,4.6 4.5,12.8 3.2,16.1 -1.1,3 -3.9,7.8 -6.4,8.3 h -0.5 c -2,0.1 -3.4,-2.6 -4.9,-5.4 z m 7.2,-17.8 c 0,0 -0.1,-0.1 -0.2,-0.3 -2.2,-2.8 -4.1,-5 -5.6,-6.3 -1.2,-1.1 -2.1,-1.7 -2.4,-1.7 -0.2,0 -0.4,0.2 -0.8,0.7 -1,1.2 -2.6,8.4 -2.3,11.7 0.3,2.8 2.8,7.3 4.5,10.3 l 0.6,1 c 0.3,0.5 0.5,1 0.8,1.4 0.9,1.7 2.5,4.6 3.3,4.4 1.2,-0.2 3.6,-3.7 4.9,-7.1 C 64,92.4 63.3,85 60.1,81.1 Z"
                 fill="#000000"
                 stroke-width="none"
                 opacity="1" />
              <path
                 id="SvgjsPath16995"
                 d="m 50,87 c -0.3,-2.3 -0.5,-7.8 0.8,-9.6 2.2,-2.9 6,6.4 6.9,9.3 0,0.1 0.1,0.2 0.1,0.3 0.2,0.3 -0.1,0.7 -0.4,0.6 -0.4,-0.2 -0.9,-0.6 -1.3,-0.8 -1.1,-0.5 -1.6,0.5 -1.3,1.8 0.4,1.8 1.4,2.9 2.2,4.3 0.1,0.2 0,0.4 -0.2,0.3 -1.6,-0.9 -3.5,-4.5 -3.1,-6.6 0.3,-2 1.9,-1.8 3.1,-0.8 -0.7,-1.7 -1.5,-3.3 -2.5,-4.8 -0.6,-0.9 -1.2,-2 -2.2,-2.2 -1.2,-0.2 -1,0.3 -1.2,1.8 -0.8,4.8 -0.3,10.4 2.5,14.5 0.1,0.1 0,0.2 -0.1,0.1 C 51.6,92.9 50.4,90.3 50,87 Z"
                 fill="#000000"
                 stroke-width="none"
                 opacity="1" />
            </g>
          </g>
          <g
             id="svga-group-ears-right-move">
            <g
               id="svga-group-ears-right">
              <path
                 id="SvgjsPath16996"
                 d="m 139.2,80.5 c 0.2,-0.3 3.3,-4.3 5.9,-6.7 2.6,-2.4 3.4,-2.4 4.6,-0.9 1.2,1.5 2.9,9.1 2.5,12.4 -0.4,3.4 -3.6,8.7 -5.2,11.7 -1.7,3 -3.3,6.7 -5.1,6.3 -1.8,-0.4 -4.4,-4.6 -5.7,-7.7 -1.2,-3.1 -0.6,-10.9 3,-15.1 z"
                 fill="#ffffff"
                 stroke-width="none"
                 opacity="1" />
              <path
                 id="SvgjsPath16997"
                 d="m 142.1,104.4 h -0.5 c -2.5,-0.5 -5.2,-5.4 -6.4,-8.3 -1.3,-3.4 -0.7,-11.5 3.2,-16.1 l 0.2,-0.3 c 2.3,-2.9 4.2,-5.1 5.8,-6.5 1.6,-1.4 2.7,-2.2 3.9,-2.2 1,0.1 1.6,0.7 2.2,1.4 1.5,1.8 3.1,9.7 2.7,13.2 -0.4,3.2 -3,7.9 -4.8,11 l -0.6,1 c -0.3,0.5 -0.5,0.9 -0.8,1.4 -1.4,2.7 -2.8,5.4 -4.9,5.4 z m -2.2,-23.3 c -3.2,3.9 -3.9,11.2 -2.8,14.1 1.3,3.4 3.7,6.9 4.9,7.1 0.8,0.2 2.4,-2.7 3.3,-4.4 0.3,-0.5 0.5,-1 0.8,-1.4 l 0.6,-1 c 1.7,-3 4.2,-7.5 4.5,-10.3 0.4,-3.3 -1.3,-10.5 -2.3,-11.7 -0.4,-0.4 -0.6,-0.7 -0.8,-0.7 -0.3,0 -1.2,0.5 -2.4,1.7 -1.5,1.4 -3.3,3.5 -5.6,6.3 0,0.2 -0.1,0.3 -0.2,0.3 z"
                 fill="#000000"
                 stroke-width="none"
                 opacity="1" />
              <path
                 id="SvgjsPath16998"
                 d="m 150,87 c 0.3,-2.3 0.5,-7.8 -0.8,-9.6 -2.2,-2.9 -6,6.4 -6.9,9.3 0,0.1 -0.1,0.2 -0.1,0.3 -0.2,0.3 0.1,0.7 0.4,0.6 0.4,-0.2 0.9,-0.6 1.3,-0.8 1.1,-0.5 1.6,0.5 1.3,1.8 -0.4,1.8 -1.4,2.9 -2.2,4.3 -0.1,0.2 0,0.4 0.2,0.3 1.6,-0.9 3.5,-4.5 3.1,-6.6 -0.3,-2 -1.9,-1.8 -3.1,-0.8 0.7,-1.7 1.5,-3.3 2.5,-4.8 0.6,-0.9 1.2,-2 2.2,-2.2 1.2,-0.2 1,0.3 1.2,1.8 0.8,4.8 0.3,10.4 -2.5,14.5 -0.1,0.1 0,0.2 0.1,0.1 1.7,-2.3 2.9,-4.9 3.3,-8.2 z"
                 fill="#000000"
                 stroke-width="none"
                 opacity="1" />
            </g>
          </g>
          <g
             id="svga-group-faceshape-wrap">
            <g
               id="svga-group-faceshape-single">
              <path
                 id="SvgjsPath16958"
                 d="M 142.4,53.6 C 140.1,42.2 127.3,24.8 100,24.8 c -27.3,0 -36.4,13.4 -40.4,23.3 -3.5,8.5 -3.4,22.4 -3.4,22.4 0,0 0.5,29.9 11.4,48.5 10.6,17.9 32.9,33.4 52.7,12.4 24.5,-26.1 23.5,-60.8 23.5,-60.8 0,0 0.2,-8.9 -1.4,-17 z"
                 fill="#ffffff"
                 stroke-width="none"
                 opacity="1" />
              <path
                 id="SvgjsPath16959"
                 d="m 99.6,142.7 c -0.9,0 -1.9,-0.1 -2.9,-0.2 C 83.5,141 72.5,129.7 66.5,119.6 55.6,101 55,71.8 55,70.6 55,70 55,56.3 58.5,47.7 c 6.6,-16.2 20.1,-24 41.5,-24 12.3,0 23.2,3.6 31.3,10.4 6.3,5.2 10.9,12.5 12.2,19.3 1.6,7.9 1.4,16.5 1.4,17.2 0,0.7 0.1,9.2 -2.6,20.9 -2.6,11 -8.4,27.1 -21.2,40.7 -6.6,7 -13.8,10.5 -21.5,10.5 z M 100,26 c -20.3,0 -33.2,7.4 -39.4,22.6 -3.3,8.2 -3.3,21.9 -3.3,22 0,0.3 0.6,29.8 11.3,47.9 5.7,9.6 16.2,20.4 28.5,21.8 8,0.9 15.6,-2.4 22.4,-9.7 12.5,-13.3 18.1,-28.9 20.7,-39.6 2.8,-11.7 2.6,-20.3 2.6,-20.4 0,-0.1 0.2,-8.9 -1.4,-16.7 -1.3,-6.4 -5.6,-13.1 -11.5,-18 C 122.1,29.4 111.8,26 100,26 Z"
                 fill="#000000"
                 stroke-width="none"
                 opacity="1" />
            </g>
          </g>
          <g
             id="svga-group-mouth-single-move">
            <g
               id="svga-group-mouth-single">
              <path
                 id="SvgjsPath17222"
                 d="m 112.4,120.4 c -0.5,-0.3 -1.7,-0.4 -2.1,-0.6 -6.8,-4.2 -15,-4 -21.6,0.5 -0.3,0.1 -2,0.1 -2.3,0.2 -0.6,0.2 1.4,0.8 2,0.6 2.1,-0.7 4.1,-1.1 6.4,-1.1 1.9,0 3.6,1.2 5.5,1.1 1.6,-0.1 3.1,-1.1 4.7,-1.3 2.2,-0.2 3.5,-0.5 5.4,0.7 0.4,0.4 2.5,0.3 2,-0.1 z m -6.4,-1.5 c -0.1,-0.2 -0.2,-0.4 -0.2,-0.6 0.2,0.1 0.3,0.1 0.5,0.2 v 0.1 c 0.1,0.1 0.1,0.2 0.1,0.4 -0.2,-0.1 -0.3,-0.2 -0.4,-0.1 z m -5.7,-1.6 h 0.7 v 0.1 c 0.2,0.8 0.4,1.6 0.7,2.4 -0.2,0 -0.3,0.1 -0.4,0.1 -0.3,-0.9 -0.6,-1.8 -1,-2.6 z m 1.2,0 c 0.2,0 0.3,0 0.5,0.1 v 0.1 c 0.2,0.7 0.4,1.3 0.6,2 -0.1,0 -0.3,0.1 -0.4,0.1 -0.3,-0.7 -0.5,-1.5 -0.7,-2.3 z m 1,0.2 c 0.2,0 0.4,0.1 0.5,0.1 0.2,0.6 0.4,1.1 0.6,1.7 -0.2,0.1 -0.4,0.1 -0.6,0.2 -0.1,-0.8 -0.3,-1.4 -0.5,-2 z m 1.1,0.2 c 0.2,0 0.3,0.1 0.5,0.1 v 0.1 c 0.1,0.4 0.2,0.8 0.4,1.2 -0.1,0 -0.3,0.1 -0.4,0.1 -0.1,-0.6 -0.3,-1.1 -0.5,-1.5 z m 1.1,0.2 c 0.2,0.1 0.4,0.1 0.6,0.2 v 0.2 c 0.1,0.2 0.2,0.4 0.2,0.7 -0.2,0 -0.3,0 -0.5,0.1 -0.1,-0.5 -0.2,-0.8 -0.3,-1.2 z m 2.1,0.7 c 0.3,0.1 0.7,0.3 1,0.4 -0.3,-0.1 -0.6,-0.1 -0.9,-0.1 -0.1,-0.1 -0.1,-0.2 -0.1,-0.3 z M 96,119.2 c -0.2,-0.5 -0.4,-0.9 -0.7,-1.4 0.1,0 0.3,-0.1 0.4,-0.1 l 0.6,1.5 z m -0.9,-0.1 c -0.2,-0.3 -0.3,-0.7 -0.5,-1.1 0.1,0 0.2,-0.1 0.3,-0.1 l 0.6,1.2 z m -0.8,0 c -0.2,-0.3 -0.3,-0.5 -0.5,-0.8 0.1,0 0.2,-0.1 0.3,-0.1 0.1,0.3 0.3,0.6 0.4,0.9 z m -0.9,0 -0.3,-0.6 c 0.1,0 0.2,-0.1 0.3,-0.1 0.1,0.2 0.2,0.4 0.4,0.7 z m -0.9,0.2 c -0.1,-0.1 -0.2,-0.3 -0.2,-0.4 0.1,-0.1 0.3,-0.1 0.4,-0.2 0.1,0.2 0.2,0.3 0.2,0.5 -0.2,0 -0.3,0 -0.4,0.1 z m -1.1,0.2 c 0,-0.1 -0.1,-0.1 -0.1,-0.2 0.2,-0.1 0.3,-0.2 0.5,-0.2 0.1,0.1 0.1,0.2 0.2,0.3 -0.2,0 -0.4,0 -0.6,0.1 z m 4.9,-1.9 c 0.2,0 0.3,-0.1 0.5,-0.1 0.2,0.7 0.5,1.4 0.7,2 -0.2,-0.1 -0.4,-0.1 -0.5,-0.1 -0.3,-0.6 -0.5,-1.2 -0.7,-1.8 z m 0.9,-0.1 c 0.1,0 0.3,0 0.4,-0.1 0.3,0.8 0.7,1.6 1,2.4 -0.2,0 -0.4,-0.1 -0.6,-0.1 -0.2,-0.7 -0.5,-1.5 -0.8,-2.2 z m 0.9,-0.2 h 0.6 v 0.1 l 0.9,2.7 c -0.2,0 -0.3,0 -0.5,-0.1 -0.3,-0.9 -0.6,-1.8 -1,-2.7 z m -7.2,2.2 c 0,0 0,0.1 0,0 -0.1,0.1 -0.2,0.2 -0.3,0.2 0.1,-0.1 0.2,-0.1 0.3,-0.2 z m 9.3,0.5 c -0.3,-0.9 -0.7,-1.8 -0.9,-2.7 h 0.6 v 0.1 c 0.4,0.8 0.7,1.7 1,2.6 z m 8.2,2.6 c -5.6,2 -11.6,2 -17.2,-0.2 -0.3,-0.1 -0.4,0.4 -0.1,0.5 5.6,2.2 11.8,2.2 17.4,0.2 0.3,-0.1 0.2,-0.6 -0.1,-0.5 z"
                 fill="#000000"
                 stroke-width="none"
                 opacity="1" />
            </g>
          </g>
          <g
             id="svga-group-eyes-left-move">
            <g
               id="svga-group-eyes-left">
              <g
                 id="svga-group-eyesback-left" />
              <g
                 id="svga-group-eyesiriswrapper-left">
                <g
                   id="svga-group-eyesiriscontrol-left">
                  <g
                     id="svga-group-eyesiris-left">
                    <path
                       id="SvgjsPath17071"
                       d="m 79.2,82.9 c 2.4,0 4.3,1.9 4.3,4.2 0,2.3 -1.9,4.2 -4.3,4.2 -2.4,0 -4.3,-1.9 -4.3,-4.2 0,-2.3 1.9,-4.2 4.3,-4.2 z"
                       fill="#000000"
                       stroke-width="none"
                       opacity="1" />
                    <path
                       id="SvgjsPath17072"
                       d="m 75.5,84.9 c -0.4,1 -0.5,2.2 -0.2,3.1 0.3,1 0.9,1.9 1.8,2.3 0.9,0.4 1.9,0.6 2.8,0.3 0.9,-0.2 1.8,-0.8 2.2,-1.6 0.5,-0.8 0.7,-1.8 0.5,-2.8 -0.1,-0.5 -0.3,-0.9 -0.6,-1.3 -0.3,-0.4 -0.7,-0.7 -1.1,-1 -0.4,-0.3 -0.9,-0.4 -1.4,-0.6 -0.5,-0.1 -1,-0.1 -1.5,-0.1 -0.1,0 -0.3,0 -0.4,0.1 -0.1,0.1 -0.3,0.1 -0.4,0.1 -0.2,0.1 -0.5,0.2 -0.7,0.3 -0.3,0.4 -0.7,0.8 -1,1.2 0.2,-0.5 0.6,-0.9 1,-1.3 0.2,-0.2 0.5,-0.3 0.7,-0.5 0.1,-0.1 0.3,-0.1 0.4,-0.2 0.1,-0.1 0.3,-0.1 0.4,-0.1 0.6,-0.1 1.2,-0.2 1.8,-0.1 0.6,0.1 1.1,0.2 1.7,0.5 0.6,0.3 1.1,0.6 1.4,1.1 0.4,0.5 0.7,1.1 0.8,1.7 0.3,1.2 0.1,2.5 -0.6,3.6 -0.3,0.5 -0.8,1 -1.3,1.4 -0.5,0.3 -1.1,0.6 -1.7,0.7 -1.2,0.2 -2.5,0.1 -3.5,-0.6 -0.5,-0.3 -0.9,-0.8 -1.3,-1.3 -0.3,-0.5 -0.5,-1.1 -0.6,-1.7 -0.1,-1.1 0.1,-2.3 0.8,-3.2 z"
                       fill="#ffffff"
                       stroke-width="none"
                       opacity="1" />
                    <path
                       id="SvgjsPath17073"
                       d="m 79.2,92 c -0.9,0 -1.8,-0.3 -2.6,-0.8 -0.5,-0.3 -1,-0.8 -1.3,-1.3 -0.3,-0.5 -0.5,-1.1 -0.6,-1.7 -0.2,-1.2 0.1,-2.4 0.7,-3.4 l 0.6,-0.9 0.2,-0.2 v 0.1 c 0.1,-0.1 0.2,-0.2 0.3,-0.2 0.2,-0.2 0.5,-0.4 0.8,-0.5 0.1,-0.1 0.3,-0.1 0.4,-0.2 0.1,-0.1 0.3,-0.1 0.4,-0.1 0.6,-0.2 1.2,-0.2 1.8,-0.1 0.6,0.1 1.2,0.3 1.7,0.5 0.6,0.3 1.1,0.7 1.5,1.2 0.4,0.5 0.7,1.1 0.8,1.7 0.3,1.2 0.1,2.6 -0.6,3.7 -0.3,0.6 -0.8,1.1 -1.3,1.4 -0.5,0.3 -1.1,0.6 -1.8,0.8 -0.3,-0.1 -0.7,0 -1,0 z M 75,86.5 c -0.1,0.5 -0.1,1.1 0,1.6 0.1,0.6 0.3,1.1 0.6,1.6 0.3,0.5 0.7,0.9 1.2,1.2 1,0.6 2.2,0.8 3.4,0.6 0.6,-0.1 1.2,-0.4 1.6,-0.7 0.4,-0.3 0.9,-0.8 1.2,-1.3 0.6,-1 0.8,-2.3 0.5,-3.5 -0.1,-0.6 -0.4,-1.2 -0.8,-1.6 -0.4,-0.4 -0.8,-0.8 -1.4,-1.1 -0.5,-0.2 -1,-0.4 -1.6,-0.5 -0.5,-0.1 -1.1,0 -1.7,0.1 -0.1,0 -0.3,0.1 -0.4,0.1 -0.1,0.1 -0.3,0.1 -0.4,0.2 -0.2,0.1 -0.3,0.2 -0.5,0.3 0.2,-0.1 0.4,-0.2 0.6,-0.2 0.1,0 0.3,-0.1 0.4,-0.1 0.1,0 0.3,-0.1 0.4,-0.1 0.6,-0.1 1.1,-0.1 1.6,0.1 0.6,0.2 1.1,0.4 1.5,0.6 0.4,0.3 0.8,0.6 1.1,1 0.3,0.4 0.5,0.9 0.6,1.4 0.2,1 0,2 -0.5,2.9 C 81.9,90 81,90.6 80,90.8 79,91 77.9,90.9 77,90.4 76.1,89.9 75.4,89 75.1,88 75,87.6 75,87.1 75,86.5 Z M 75.6,85 c -0.4,1 -0.4,2 -0.1,3 0.3,1 0.9,1.8 1.7,2.2 0.8,0.4 1.8,0.6 2.7,0.3 0.9,-0.2 1.7,-0.8 2.2,-1.6 0.5,-0.8 0.7,-1.8 0.5,-2.7 -0.1,-0.5 -0.3,-0.9 -0.5,-1.2 -0.3,-0.4 -0.6,-0.7 -1,-0.9 -0.4,-0.2 -0.8,-0.4 -1.4,-0.6 -0.4,-0.1 -0.9,-0.1 -1.5,-0.1 -0.1,0 -0.2,0 -0.4,0.1 -0.1,0 -0.2,0.1 -0.4,0.1 -0.2,0.1 -0.4,0.2 -0.7,0.3 -0.4,0.3 -0.7,0.7 -1.1,1.1 z"
                       fill="#000000"
                       stroke-width="none"
                       opacity="1" />
                    <path
                       id="SvgjsPath17074"
                       d="m 79.3,84.8 c -1.3,-0.3 -2.9,1.3 -2.6,2.6 0.1,0.3 0.4,0.6 0.7,0.6 0.4,0 0.6,-0.1 0.8,-0.4 0.1,-0.1 0.1,-0.2 0.2,-0.3 0,0 0.1,-0.1 0.1,-0.2 V 87 l 0.1,-0.1 0.1,-0.1 c 0,0 0.2,-0.1 0.1,-0.1 0.2,-0.1 0.4,-0.1 0.6,-0.2 0.8,-0.3 0.7,-1.5 -0.1,-1.7 z"
                       fill="#ffffff"
                       stroke-width="none"
                       opacity="1" />
                  </g>
                </g>
              </g>
              <g
                 id="svga-group-eyesfront-left">
                <path
                   id="SvgjsPath17037"
                   d="m 79,72.1 c -8.2,0 -14.8,6.6 -14.8,14.8 0,8.2 6.6,14.8 14.8,14.8 8.2,0 14.8,-6.6 14.8,-14.8 C 93.8,78.8 87.2,72.1 79,72.1 Z M 84.4,93 C 79.9,94.4 74.4,92.8 71.6,90.9 68.9,89 67,86 67,86 c 9.1,-2.2 13.6,-0.3 17,1.1 3.4,1.4 5,4.1 5,4.1 0,0 -0.1,0.4 -4.6,1.8 z"
                   fill="#ffffff"
                   stroke-width="none"
                   opacity="1" />
                <path
                   id="SvgjsPath17038"
                   d="M 90.3,92.1 C 88.2,85.2 85,81.2 80.7,80.1 73.3,78.2 65.6,85.7 65.3,86 c -0.2,0.2 -0.2,0.5 -0.1,0.7 0.1,0.2 0.4,0.3 0.6,0.3 12.7,-3.7 19.6,1.4 22.2,4.1 -2.2,1.1 -13,5.7 -19.8,-4.2 -0.2,-0.3 -0.5,-0.3 -0.8,-0.1 -0.3,0.2 -0.3,0.5 -0.1,0.8 3.6,5.2 8.2,6.7 12.3,6.7 4.5,0 8.4,-1.8 9.2,-2.2 0.3,0.4 0.5,0.6 0.5,0.6 0.1,0.2 0.3,0.3 0.5,0.3 H 90 c 0.3,-0.3 0.4,-0.6 0.3,-0.9 z M 69.1,85 c 0.4,-0.3 0.8,-0.8 0.9,-0.8 0.4,-0.4 0.9,-0.7 1.3,-1.1 0.4,-0.2 0.9,-0.5 1.3,-0.7 -0.5,0.4 -1,0.9 -1.5,1.3 -0.4,0.4 -0.8,0.8 -1.1,1.2 -0.3,0 -0.6,0 -0.9,0.1 z m 1.8,-0.3 0.7,-0.7 c 0.6,-0.5 1.1,-1.1 1.5,-1.7 0.1,-0.1 0,-0.2 -0.1,-0.2 0.8,-0.4 1.7,-0.7 2.6,-0.9 -0.6,0.4 -1.2,0.9 -1.7,1.4 -0.7,0.6 -1.3,1.2 -1.9,1.9 -0.4,0.1 -0.7,0.1 -1.1,0.2 z m 3.6,-0.2 c 0.9,-0.8 1.9,-1.6 2.6,-2.6 0.1,-0.2 -0.1,-0.4 -0.3,-0.3 -1.2,0.8 -2.2,1.9 -3.2,2.9 h -0.9 c 0.5,-0.4 0.9,-0.9 1.4,-1.3 0.8,-0.7 1.6,-1.3 2.3,-2 v -0.1 c 0.6,-0.1 1.2,-0.2 1.8,-0.2 0.7,0 1.5,0.1 2.2,0.3 3.3,0.9 5.9,3.7 7.8,8.5 C 86,87.5 81.6,84.5 74.5,84.5 Z"
                   fill="#000000"
                   stroke-width="none"
                   opacity="1" />
              </g>
            </g>
          </g>
          <g
             id="svga-group-eyes-right-move">
            <g
               id="svga-group-eyes-right">
              <g
                 id="svga-group-eyesback-right" />
              <g
                 id="svga-group-eyesiriswrapper-right">
                <g
                   id="svga-group-eyesiriscontrol-right">
                  <g
                     id="svga-group-eyesiris-right">
                    <path
                       id="SvgjsPath17075"
                       d="m 121.3,82.9 c 2.4,0 4.3,1.9 4.3,4.2 0,2.3 -1.9,4.2 -4.3,4.2 -2.4,0 -4.3,-1.9 -4.3,-4.2 0,-2.3 2,-4.2 4.3,-4.2 z"
                       fill="#000000"
                       stroke-width="none"
                       opacity="1" />
                    <path
                       id="SvgjsPath17076"
                       d="m 117.6,84.9 c -0.4,1 -0.5,2.2 -0.2,3.1 0.3,1 0.9,1.9 1.8,2.3 0.9,0.4 1.9,0.6 2.8,0.3 0.9,-0.2 1.8,-0.8 2.2,-1.6 0.5,-0.8 0.7,-1.8 0.5,-2.8 -0.1,-0.5 -0.3,-0.9 -0.6,-1.3 -0.3,-0.4 -0.7,-0.7 -1.1,-1 -0.4,-0.3 -0.9,-0.4 -1.4,-0.6 -0.5,-0.1 -1,-0.1 -1.5,-0.1 -0.1,0 -0.3,0 -0.4,0.1 -0.1,0.1 -0.3,0.1 -0.4,0.1 -0.2,0.1 -0.5,0.2 -0.7,0.3 -0.3,0.4 -0.7,0.8 -1,1.2 0.2,-0.5 0.6,-0.9 1,-1.3 0.2,-0.2 0.5,-0.3 0.7,-0.5 0.1,-0.1 0.3,-0.1 0.4,-0.2 0.1,-0.1 0.3,-0.1 0.4,-0.1 0.6,-0.1 1.2,-0.2 1.8,-0.1 0.6,0.1 1.1,0.2 1.7,0.5 0.6,0.3 1.1,0.6 1.4,1.1 0.4,0.5 0.7,1.1 0.8,1.7 0.3,1.2 0.1,2.5 -0.6,3.6 -0.3,0.5 -0.8,1 -1.3,1.4 -0.5,0.3 -1.1,0.6 -1.7,0.7 -1.2,0.2 -2.5,0.1 -3.5,-0.6 -0.5,-0.3 -0.9,-0.8 -1.3,-1.3 -0.3,-0.5 -0.5,-1.1 -0.6,-1.7 0,-1.1 0.2,-2.3 0.8,-3.2 z"
                       fill="#ffffff"
                       stroke-width="none"
                       opacity="1" />
                    <path
                       id="SvgjsPath17077"
                       d="m 121.3,92 c -0.9,0 -1.8,-0.3 -2.6,-0.8 -0.5,-0.3 -1,-0.8 -1.3,-1.3 -0.3,-0.5 -0.5,-1.1 -0.6,-1.7 -0.2,-1.2 0.1,-2.4 0.7,-3.4 l 0.6,-0.9 0.2,-0.2 v 0.1 c 0.1,-0.1 0.2,-0.2 0.3,-0.2 0.2,-0.2 0.5,-0.4 0.8,-0.5 0.1,-0.1 0.3,-0.1 0.4,-0.2 0.1,-0.1 0.3,-0.1 0.4,-0.1 0.6,-0.2 1.2,-0.2 1.8,-0.1 0.6,0.1 1.2,0.3 1.7,0.5 0.6,0.3 1.1,0.7 1.5,1.2 0.4,0.5 0.7,1.1 0.8,1.7 0.3,1.2 0.1,2.6 -0.6,3.7 -0.3,0.6 -0.8,1.1 -1.3,1.4 -0.5,0.3 -1.1,0.6 -1.8,0.8 -0.3,-0.1 -0.6,0 -1,0 z m -4.2,-5.5 c -0.1,0.5 -0.1,1.1 0,1.6 0.1,0.6 0.3,1.1 0.6,1.6 0.3,0.5 0.7,0.9 1.2,1.2 1,0.6 2.2,0.8 3.4,0.6 0.6,-0.1 1.2,-0.4 1.6,-0.7 0.4,-0.3 0.9,-0.8 1.2,-1.3 0.6,-1 0.8,-2.3 0.5,-3.5 -0.1,-0.6 -0.4,-1.2 -0.8,-1.6 -0.4,-0.4 -0.8,-0.8 -1.4,-1.1 -0.5,-0.2 -1,-0.4 -1.6,-0.5 -0.5,-0.1 -1.1,0 -1.7,0.1 -0.1,0 -0.3,0.1 -0.4,0.1 -0.1,0.1 -0.3,0.1 -0.4,0.2 -0.2,0.1 -0.3,0.2 -0.5,0.3 0.2,-0.1 0.4,-0.2 0.6,-0.2 0.1,0 0.3,-0.1 0.4,-0.1 0.1,0 0.3,-0.1 0.4,-0.1 0.6,-0.1 1.1,-0.1 1.6,0.1 0.6,0.2 1.1,0.4 1.5,0.6 0.4,0.3 0.8,0.6 1.1,1 0.3,0.4 0.5,0.9 0.6,1.4 0.2,1 0,2 -0.5,2.9 -0.5,0.8 -1.3,1.5 -2.3,1.7 -1,0.2 -2.1,0.1 -3,-0.4 -0.9,-0.5 -1.6,-1.4 -1.9,-2.4 -0.1,-0.4 -0.2,-0.9 -0.2,-1.5 z m 0.6,-1.5 c -0.4,1 -0.4,2 -0.1,3 0.3,1 0.9,1.8 1.7,2.2 0.8,0.4 1.8,0.6 2.7,0.3 0.9,-0.2 1.7,-0.8 2.2,-1.6 0.5,-0.8 0.7,-1.8 0.5,-2.7 -0.1,-0.5 -0.3,-0.9 -0.5,-1.2 -0.3,-0.4 -0.6,-0.7 -1,-0.9 -0.4,-0.2 -0.8,-0.4 -1.4,-0.6 -0.4,-0.1 -0.9,-0.1 -1.5,-0.1 -0.1,0 -0.2,0 -0.4,0.1 -0.1,0 -0.2,0.1 -0.4,0.1 -0.2,0.1 -0.4,0.2 -0.7,0.3 z"
                       fill="#000000"
                       stroke-width="none"
                       opacity="1" />
                    <path
                       id="SvgjsPath17078"
                       d="m 121.4,84.8 c -1.3,-0.3 -2.9,1.3 -2.6,2.6 0.1,0.3 0.4,0.6 0.7,0.6 0.4,0 0.6,-0.1 0.8,-0.4 0.1,-0.1 0.1,-0.2 0.2,-0.3 0,0 0.1,-0.1 0.1,-0.2 V 87 l 0.1,-0.1 0.1,-0.1 c 0,0 0.2,-0.1 0.1,-0.1 0.2,-0.1 0.4,-0.1 0.6,-0.2 0.8,-0.3 0.7,-1.5 -0.1,-1.7 z"
                       fill="#ffffff"
                       stroke-width="none"
                       opacity="1" />
                  </g>
                </g>
              </g>
              <g
                 id="svga-group-eyesfront-right">
                <path
                   id="SvgjsPath17039"
                   d="m 121,72.1 c -8.2,0 -14.8,6.6 -14.8,14.8 0,8.2 6.6,14.8 14.8,14.8 8.2,0 14.8,-6.6 14.8,-14.8 0,-8.1 -6.6,-14.8 -14.8,-14.8 z m 6.8,18.8 c -2.8,1.9 -8.3,3.5 -12.8,2.1 -4.5,-1.4 -4.6,-1.7 -4.6,-1.7 0,0 1.6,-2.7 5,-4.1 3.4,-1.4 7.9,-3.3 17,-1.1 0.1,-0.1 -1.8,2.9 -4.6,4.8 z"
                   fill="#ffffff"
                   stroke-width="none"
                   opacity="1" />
                <path
                   id="SvgjsPath17042"
                   d="m 134.2,85.9 c -0.3,-0.3 -8.1,-7.8 -15.4,-5.9 -4.3,1.1 -7.5,5.2 -9.6,12 -0.1,0.3 0.1,0.6 0.3,0.7 h 0.2 c 0.2,0 0.4,-0.1 0.5,-0.3 0,0 0.2,-0.3 0.5,-0.6 0.8,0.4 4.7,2.2 9.2,2.2 4.1,0 8.7,-1.5 12.3,-6.7 0.2,-0.3 0.1,-0.6 -0.1,-0.8 -0.2,-0.2 -0.6,-0.1 -0.8,0.1 -6.8,10 -17.6,5.3 -19.8,4.2 2.6,-2.7 9.5,-7.9 22.2,-4.1 0.2,0.1 0.5,0 0.6,-0.3 0.1,0 0.1,-0.3 -0.1,-0.5 z m -21.6,2.6 c -0.1,0.1 -0.3,0.2 -0.4,0.3 0.1,-0.6 0.2,-1.2 0.2,-1.8 0.1,-0.1 0.1,-0.2 0.2,-0.3 0,0.6 -0.1,1.2 0,1.8 z m 0.6,-0.4 v -2.2 c 0.1,-0.2 0.2,-0.3 0.3,-0.5 -0.1,0.8 -0.1,1.6 0.2,2.4 -0.2,0.1 -0.4,0.2 -0.5,0.3 z m 1,-0.7 c 0.1,-1 0,-2 0,-2.9 0.3,-0.4 0.7,-0.7 1,-1.1 -0.1,1.1 -0.2,2.3 0.1,3.4 -0.4,0.2 -0.8,0.4 -1.1,0.6 z m 1.4,-0.8 c 0.1,-1.2 0,-2.4 0,-3.6 0.3,-0.2 0.6,-0.5 0.9,-0.7 0,1.1 0,2.2 0.2,3.2 0,0.2 0.3,0.1 0.3,0 0.1,-1.1 -0.1,-2.1 -0.2,-3.2 0,-0.1 -0.1,-0.1 -0.1,-0.1 0.5,-0.3 1,-0.6 1.5,-0.8 0,1.3 0,2.7 0.4,4 -1.1,0.4 -2.1,0.8 -3,1.2 z m 3.4,-1.3 c 0.1,-1.3 -0.2,-2.7 -0.6,-4 0.2,-0.1 0.4,-0.1 0.6,-0.2 0.7,-0.2 1.5,-0.3 2.2,-0.3 4.1,0 8.1,2.6 10.3,4.3 -5.1,-1.1 -9.3,-0.7 -12.5,0.2 z"
                   fill="#000000"
                   stroke-width="none"
                   opacity="1" />
              </g>
            </g>
          </g>
          <g
             id="svga-group-facehighlight-single" />
          <g
             id="svga-group-eyebrows-left-move">
            <g
               id="svga-group-eyebrows-left-rotate">
              <g
                 id="svga-group-eyebrows-left">
                <path
                   id="SvgjsPath17200"
                   d="m 71.56,71.57 c 4.09,-0.17 10.75,3.28 13.7,4.98 2.94,1.7 6.34,1.7 5.89,-1.02 -0.45,-2.72 -11.66,-6.91 -15.17,-7.47 -3.51,-0.57 -6.79,1.13 -12.23,6.79 0,0 5.09,-3.17 7.81,-3.28 z"
                   fill="#ffffff"
                   stroke-width="none"
                   opacity="1" />
                <path
                   id="SvgjsPath17201"
                   d="m 63.35,75.18 c 0.16,0.2 0.45,0.25 0.67,0.11 0.05,-0.03 5.01,-3.1 7.56,-3.21 3.37,-0.13 9.14,2.45 13.42,4.92 1.41,0.81 2.85,1.24 4.03,1.24 0.72,0 1.34,-0.16 1.8,-0.48 0.69,-0.48 0.98,-1.3 0.82,-2.31 -0.53,-3.17 -12.15,-7.34 -15.59,-7.89 -3.79,-0.61 -7.23,1.27 -12.68,6.94 -0.18,0.19 -0.19,0.48 -0.03,0.68 z m 7.74,-4.08 c -0.56,0.02 -1.8,0.07 -2.68,0.11 0.59,-0.47 1.16,-0.88 1.7,-1.22 l 2.22,1.08 c -0.27,-0.02 -0.54,-0.02 -0.8,-0.01 -0.13,0.01 -0.28,0.02 -0.44,0.04 z m 3.44,0.3 a 0.24,0.24 0 0 0 -0.08,-0.06 l -3.62,-1.76 c 0.47,-0.26 0.93,-0.46 1.38,-0.63 l 3.17,2.66 C 75.1,71.53 74.81,71.47 74.53,71.4 Z m 2.55,0.75 -4.11,-3.45 c 0.58,-0.15 1.15,-0.22 1.72,-0.23 l 4.06,4.3 C 78.2,72.56 77.64,72.35 77.08,72.15 Z m 0.16,-3.29 c 0,0.01 0,0.01 0.01,0.02 1.26,1.57 2.93,3.66 4,5 -0.3,-0.14 -0.61,-0.28 -0.92,-0.42 l -4.61,-4.89 c 0.06,0.01 0.12,0.01 0.18,0.01 0.38,0.05 0.84,0.15 1.34,0.28 z m 5.43,5.71 c -0.69,-0.88 -3.1,-3.88 -4.32,-5.41 0.62,0.18 1.28,0.4 1.96,0.64 l 3.66,5.45 c -0.39,-0.21 -0.83,-0.44 -1.3,-0.68 z m 2.61,1.41 -3.88,-5.78 c 0.57,0.21 1.15,0.44 1.73,0.68 0.01,0.01 0,0.03 0.01,0.04 l 3.36,5.68 c -0.33,-0.14 -0.66,-0.3 -0.99,-0.49 -0.07,-0.04 -0.15,-0.09 -0.23,-0.13 z m 2.23,0.98 -3.34,-5.64 c 0.63,0.28 1.25,0.56 1.83,0.85 v 0.01 l 2.49,4.99 c -0.3,-0.05 -0.63,-0.11 -0.98,-0.21 z m 1.77,0.23 -2.25,-4.5 c 0.62,0.33 1.19,0.66 1.69,0.98 l 1.05,3.45 c -0.16,0.04 -0.32,0.06 -0.49,0.07 z m 1.1,-0.38 -0.75,-2.47 c 0.58,0.47 0.94,0.91 1.01,1.28 0.11,0.69 -0.09,1.03 -0.26,1.19 z M 66.75,72.63 c 0.27,-0.25 0.53,-0.47 0.79,-0.69 0.22,-0.01 0.52,-0.02 0.84,-0.04 -0.56,0.22 -1.11,0.47 -1.63,0.73 z"
                   fill="#000000"
                   stroke-width="none"
                   opacity="1" />
              </g>
            </g>
          </g>
          <g
             id="svga-group-eyebrows-right-move">
            <g
               id="svga-group-eyebrows-right-rotate">
              <g
                 id="svga-group-eyebrows-right">
                <path
                   id="SvgjsPath17202"
                   d="m 128.44,71.57 c -4.09,-0.17 -10.75,3.28 -13.7,4.98 -2.94,1.7 -6.34,1.7 -5.89,-1.02 0.45,-2.72 11.66,-6.91 15.17,-7.47 3.51,-0.57 6.79,1.13 12.23,6.79 0,0 -5.09,-3.17 -7.81,-3.28 z"
                   fill="#ffffff"
                   stroke-width="none"
                   opacity="1" />
                <path
                   id="SvgjsPath17203"
                   d="m 136.62,74.5 c -5.45,-5.67 -8.88,-7.55 -12.68,-6.94 -3.44,0.55 -15.06,4.72 -15.59,7.89 -0.17,1.01 0.12,1.83 0.82,2.31 0.46,0.32 1.08,0.48 1.8,0.48 1.18,0 2.62,-0.43 4.03,-1.24 4.28,-2.47 10.05,-5.05 13.42,-4.91 2.55,0.11 7.51,3.17 7.56,3.21 0.22,0.14 0.51,0.09 0.67,-0.11 a 0.53,0.53 0 0 0 -0.03,-0.69 z m -8.16,-3.44 c -0.26,-0.01 -0.52,0 -0.8,0.01 l 2.22,-1.08 c 0.54,0.34 1.11,0.76 1.7,1.22 -0.88,-0.04 -2.12,-0.09 -2.68,-0.11 -0.15,-0.02 -0.3,-0.03 -0.44,-0.04 z m -3.84,0.55 3.17,-2.66 c 0.45,0.16 0.91,0.37 1.38,0.63 l -3.62,1.76 c -0.03,0.02 -0.06,0.04 -0.08,0.06 -0.28,0.07 -0.57,0.13 -0.85,0.21 z m -3.37,1.17 4.06,-4.3 c 0.57,0 1.14,0.08 1.72,0.23 l -4.11,3.45 c -0.56,0.19 -1.12,0.4 -1.67,0.62 z m 2.86,-4.21 c 0.06,-0.01 0.12,-0.01 0.18,-0.01 l -4.61,4.89 c -0.31,0.14 -0.62,0.28 -0.92,0.42 1.07,-1.34 2.74,-3.43 4,-5 0,-0.01 0,-0.01 0.01,-0.02 0.49,-0.12 0.95,-0.22 1.34,-0.28 z m -8.08,6.68 3.66,-5.45 c 0.69,-0.24 1.35,-0.45 1.96,-0.64 -1.22,1.52 -3.63,4.53 -4.32,5.41 -0.47,0.24 -0.91,0.47 -1.3,0.68 z m -1.54,0.86 c -0.33,0.19 -0.66,0.34 -0.99,0.49 l 3.36,-5.68 c 0.01,-0.01 0,-0.02 0.01,-0.04 0.58,-0.24 1.16,-0.47 1.73,-0.68 l -3.88,5.78 c -0.08,0.04 -0.16,0.09 -0.23,0.13 z m -2.99,1.05 2.49,-4.99 v -0.01 c 0.59,-0.29 1.2,-0.57 1.83,-0.85 l -3.34,5.64 c -0.34,0.11 -0.67,0.17 -0.98,0.21 z m -1.26,-0.04 1.05,-3.45 c 0.49,-0.32 1.07,-0.65 1.69,-0.98 l -2.25,4.5 c -0.18,-0.01 -0.34,-0.03 -0.49,-0.07 z m -0.88,-1.5 c 0.06,-0.38 0.43,-0.81 1.01,-1.28 l -0.75,2.47 c -0.17,-0.16 -0.37,-0.5 -0.26,-1.19 z m 22.26,-3.72 c 0.33,0.01 0.62,0.03 0.84,0.04 0.26,0.22 0.52,0.44 0.79,0.69 -0.52,-0.26 -1.07,-0.51 -1.63,-0.73 z"
                   fill="#000000"
                   stroke-width="none"
                   opacity="1" />
              </g>
            </g>
          </g>
          <g
             id="svga-group-beardwrap">
            <g
               id="svga-group-beard-single-move">
              <g
                 id="svga-group-beard-single">
                <path
                   id="SvgjsPath17256"
                   d="m 98.1,130.1 c -3.7,-0.2 -7.7,-0.1 -10.8,1 -3.1,1.1 -3.2,4.8 -1.7,9.4 1.5,4.6 2.8,8.9 4.4,10.5 1.6,1.6 12.8,1.9 15.6,1.4 2.7,-0.4 7.2,-12.1 8.2,-14.7 1.1,-2.6 0,-5.6 -3.9,-6.6 -3.9,-1 -10.1,-0.9 -11.8,-1 z"
                   fill="#ffffff"
                   stroke-width="none"
                   opacity="1" />
                <path
                   id="SvgjsPath17257"
                   d="m 114.2,133.6 c -0.5,-1 -1.7,-2.4 -4.2,-3.1 -3.2,-0.8 -7.7,-0.9 -10.4,-0.9 H 98 c -4.8,-0.2 -8.4,0.1 -11,1.1 -2.2,0.8 -4.3,3.2 -2,10 l 0.5,1.4 c 1.4,4.1 2.5,7.7 4.1,9.2 1.3,1.4 7.6,1.8 12,1.8 1.8,0 3.3,-0.1 4,-0.2 2.4,-0.4 5.3,-6.9 8.2,-13.9 0.2,-0.5 0.3,-0.8 0.5,-1.1 0.6,-1.5 0.5,-3 -0.1,-4.3 z m -27.7,8.2 -0.5,-1.4 c -0.7,-2 -1.2,-4.3 -0.8,-6 0.9,3.3 3.4,12.6 5.4,16.5 -0.1,-0.1 -0.2,-0.1 -0.3,-0.2 -1.3,-1.4 -2.5,-5.1 -3.8,-8.9 z m 26.8,-4.3 c -0.1,0.3 -0.3,0.7 -0.5,1.1 -3.5,8.6 -6,13.1 -7.4,13.3 -2.7,0.4 -11.1,0.1 -14.1,-0.8 -2.1,-3.7 -5.2,-15.3 -5.8,-17.7 0.3,-0.8 1,-1.4 1.9,-1.8 2,-0.7 4.6,-1.1 7.9,-1.1 0.8,0 1.8,0 2.7,0.1 h 3.5 c 0.1,1.3 0.2,5.7 -0.3,9.8 0,0.1 0.1,0.3 0.2,0.3 0.1,0 0.2,-0.1 0.2,-0.2 0.5,-4.1 0.4,-8.5 0.3,-9.8 1.2,0 2.4,0.1 3.7,0.2 -0.1,0.8 -0.3,2.7 -0.5,4.4 0,0.1 0.1,0.3 0.2,0.3 0.1,0 0.2,-0.1 0.2,-0.2 0.2,-1.7 0.4,-3.6 0.5,-4.4 1.3,0.1 2.5,0.3 3.6,0.6 1.7,0.4 3,1.3 3.6,2.5 0.6,1 0.6,2.2 0.1,3.4 z m -25.7,-2.3 c 0,-0.1 -0.2,-0.2 -0.3,-0.2 -0.1,0 -0.2,0.2 -0.2,0.3 1.1,4.9 2.8,9.6 5,14.1 0,0.1 0.1,0.1 0.2,0.1 h 0.1 c 0.1,-0.1 0.2,-0.2 0.1,-0.3 -2.2,-4.5 -3.8,-9.2 -4.9,-14 z m 2.2,-2.5 c 0,-0.1 -0.1,-0.2 -0.2,-0.2 -0.1,0 -0.2,0.1 -0.2,0.2 0,0.4 1.9,9.1 3.1,12.9 0,0.1 0.1,0.2 0.2,0.2 h 0.1 c 0.1,0 0.2,-0.2 0.2,-0.3 -1.3,-4 -3.2,-12.4 -3.2,-12.8 z m 3.6,8.8 c -0.1,0 -0.2,0.1 -0.2,0.3 0,0.1 0.7,5.5 1.5,8.4 0,0.1 0.1,0.2 0.2,0.2 H 95 c 0.1,0 0.2,-0.2 0.2,-0.3 -0.8,-2.8 -1.5,-8.2 -1.5,-8.3 0,-0.2 -0.1,-0.3 -0.3,-0.3 z m 18.8,-6.9 c -0.1,0 -0.3,0 -0.3,0.2 v 0.1 c -0.8,2.5 -3.6,11.1 -6.1,15.2 -0.1,0.1 0,0.3 0.1,0.3 h 0.1 c 0.1,0 0.2,0 0.2,-0.1 2.5,-4.2 5.3,-12.8 6.1,-15.4 v -0.1 c 0.1,-0.1 0,-0.2 -0.1,-0.2 z m -2.9,2.6 c -0.1,0 -0.3,0 -0.3,0.2 0,0.1 -2.8,9.7 -5,13.3 -0.1,0.1 0,0.3 0.1,0.3 h 0.1 c 0.1,0 0.2,0 0.2,-0.1 2.3,-3.7 5,-13 5.1,-13.4 0.1,-0.1 0,-0.2 -0.2,-0.3 z m -3.4,6 c 0.2,0 0.3,-0.1 0.3,-0.2 0.8,-4.1 2.2,-10.9 2.2,-10.9 0,-0.1 -0.1,-0.3 -0.2,-0.3 -0.1,0 -0.3,0.1 -0.3,0.2 0,0.1 -1.4,6.8 -2.2,10.9 0,0.2 0.1,0.3 0.2,0.3 z m -1.4,-2.7 c -0.1,0 -0.3,0.1 -0.3,0.2 -0.3,3.2 -2.6,9.7 -2.7,9.8 -0.1,0.1 0,0.3 0.2,0.3 h 0.1 c 0.1,0 0.2,-0.1 0.2,-0.2 0.1,-0.3 2.4,-6.6 2.7,-9.9 0.1,0 0,-0.1 -0.2,-0.2 z m -10.1,-6.8 c -0.1,0 -0.2,0.1 -0.2,0.3 0,0.1 0.4,6 0.7,9.6 0,0.1 0.1,0.2 0.2,0.2 0.1,0 0.2,-0.1 0.2,-0.3 -0.4,-3.6 -0.7,-9.5 -0.7,-9.5 0,-0.2 -0.1,-0.3 -0.2,-0.3 z m 6.9,11.8 c -0.1,0 -0.3,0.1 -0.3,0.2 -0.1,1.8 -1.3,5.4 -1.4,5.4 0,0.1 0,0.3 0.2,0.3 h 0.1 c 0.1,0 0.2,-0.1 0.2,-0.2 0.1,-0.1 1.2,-3.7 1.4,-5.6 0,0.1 -0.1,-0.1 -0.2,-0.1 z m 1.6,-2.9 c 0.2,0 0.3,-0.1 0.3,-0.2 0.3,-1.8 1.1,-8 1,-8.4 0,-0.1 -0.2,-0.2 -0.3,-0.2 -0.1,0 -0.2,0.2 -0.2,0.3 0,0.4 -0.6,6.2 -1,8.2 0,0.2 0,0.3 0.2,0.3 z m -6.8,2.9 c -0.1,0 -0.2,0.1 -0.2,0.3 0,0.2 0.2,3.9 0.5,5.3 0,0.1 0.1,0.2 0.2,0.2 h 0.1 c 0.1,0 0.2,-0.2 0.2,-0.3 -0.3,-1.3 -0.5,-5.2 -0.5,-5.2 0,-0.2 -0.2,-0.3 -0.3,-0.3 z m -4,-13.3 c -0.1,0 -0.2,0.1 -0.2,0.3 0,0 0.2,2.9 0.5,4.6 0,0.1 0.1,0.2 0.2,0.2 0.1,0 0.2,-0.1 0.2,-0.3 -0.3,-1.6 -0.5,-4.5 -0.5,-4.5 0,-0.2 -0.1,-0.3 -0.2,-0.3 z"
                   fill="#000000"
                   stroke-width="none"
                   opacity="1" />
              </g>
            </g>
          </g>
          <g
             id="svga-group-mustache-single-move">
            <g
               id="svga-group-mustache-single">
              <path
                 id="SvgjsPath18343"
                 d="m 97.3,116 c 1.7,-0.8 1.5,-3.1 -0.1,-3.5 -1.5,-0.4 -13.2,0.1 -15.4,0.8 -2.2,0.7 -5.6,1.9 -2.3,2.1 3.3,0.3 12.9,-0.1 14.1,0.3 1,0.3 3.1,0.5 3.7,0.3 z"
                 fill="#ffffff"
                 stroke-width="none"
                 opacity="1" />
              <path
                 id="SvgjsPath18344"
                 d="m 101.5,113.3 c -1.1,1.6 0.3,2.5 1.4,2.7 1,0.2 14.7,-1.5 16.1,-1.2 1.4,0.3 3,0.5 3.1,0 0.1,-0.5 -8.3,-2.6 -11.5,-2.7 -3.2,-0.1 -8.7,0.6 -9.1,1.2 z"
                 fill="#ffffff"
                 stroke-width="none"
                 opacity="1" />
              <path
                 id="SvgjsPath18345"
                 d="m 97.3,112.1 c -1.7,-0.5 -13.4,0.1 -15.6,0.8 -3.7,1.1 -4,1.7 -3.9,2.1 0.1,0.6 0.8,0.7 1.7,0.8 1.5,0.1 4.5,0.1 7.3,0.1 2.9,0 6.1,0 6.7,0.1 0.8,0.2 2.1,0.5 3.1,0.5 0.4,0 0.8,0 1,-0.1 0.9,-0.4 1.5,-1.3 1.4,-2.2 -0.2,-1.1 -0.8,-1.9 -1.7,-2.1 z m -2.5,0.6 c -0.2,0.3 -0.3,0.6 -0.5,0.8 -0.4,0.5 -0.9,1 -1.5,1.4 -0.1,0.1 -0.1,0.2 -0.1,0.3 -0.3,0 -0.8,0 -1.3,-0.1 0.4,-0.2 0.7,-0.5 1,-0.7 0.6,-0.4 1.2,-1 1.4,-1.7 z m -5,2.4 c 0.7,-0.6 1.2,-1.5 1.5,-2.3 0.7,0 1.4,0 2.1,-0.1 -0.5,0.6 -0.9,1.1 -1.6,1.6 -0.5,0.3 -1.1,0.5 -1.5,0.8 z m -2.5,0 H 87 c 0.7,-0.5 1.4,-1.4 1.6,-2.2 0.4,0 0.7,0 1.1,-0.1 -0.3,0.5 -0.6,0.9 -1,1.3 -0.2,0.2 -0.5,0.4 -0.8,0.6 -0.3,0.1 -0.5,0.2 -0.6,0.4 z m -2.1,0 c 0.8,-0.5 1.5,-1.4 2,-2.2 0.3,0 0.6,0 0.9,-0.1 -0.2,0.3 -0.3,0.7 -0.5,1 -0.3,0.5 -0.8,0.8 -1.2,1.2 -0.4,0.1 -0.8,0.1 -1.2,0.1 z m -2.4,0 c 0.5,-0.5 0.9,-1.2 1.1,-1.8 0.3,0 0.7,-0.1 1,-0.1 -0.2,0.3 -0.3,0.6 -0.6,0.9 -0.3,0.4 -0.7,0.7 -1.1,1 z m -1,0 c 0.5,-0.4 0.9,-1.1 0.9,-1.7 0.3,0 0.6,-0.1 0.9,-0.1 -0.1,0.3 -0.2,0.6 -0.4,0.9 -0.2,0.3 -0.4,0.7 -0.7,0.9 z m 3.6,-2 c 0.4,0 0.8,-0.1 1.3,-0.1 -0.2,0.3 -0.5,0.6 -0.8,0.9 -0.5,0.5 -1.1,0.8 -1.7,1.2 h -0.4 c 0.7,-0.5 1.4,-1.2 1.6,-2 z m -3.5,0.5 c 0.2,-0.1 0.3,-0.1 0.6,-0.1 -0.2,0.3 -0.3,0.7 -0.6,0.9 -0.2,0.3 -0.5,0.5 -0.8,0.7 h -0.3 c 0.2,-0.4 0.4,-0.8 0.4,-1.3 0.2,-0.1 0.4,-0.1 0.7,-0.2 z m -2,1.4 c 0.2,-0.3 0.3,-0.6 0.4,-0.9 0.2,-0.1 0.4,-0.1 0.6,-0.2 l -0.3,1.2 c -0.3,0 -0.5,0 -0.7,-0.1 z m 0,-0.8 c -0.1,0.3 -0.3,0.5 -0.5,0.8 -0.4,0 -0.7,-0.1 -0.9,-0.1 0.3,-0.1 0.7,-0.3 1.4,-0.7 z m 8.2,0.9 c 0.3,-0.2 0.7,-0.5 0.9,-0.7 0.5,-0.5 0.8,-1 1,-1.6 h 0.8 c -0.4,0.9 -0.9,1.6 -1.6,2.3 z m 5.1,0.1 c 0.6,-0.4 1,-0.8 1.4,-1.3 0.3,-0.3 0.6,-0.8 0.8,-1.2 0.5,0 1,0 1.3,0.1 -0.4,0.6 -0.8,1.2 -1.4,1.6 -0.5,0.3 -1.3,0.3 -1.7,0.9 -0.2,-0.1 -0.3,-0.1 -0.4,-0.1 z m 2.9,0.5 c 0.8,-0.6 1.4,-1.5 1.6,-2.4 0,-0.1 -0.1,-0.2 -0.2,-0.1 -0.2,0.4 -0.4,0.9 -0.7,1.3 -0.3,0.4 -0.7,0.8 -1.1,1.1 -0.5,-0.1 -1,-0.1 -1.5,-0.2 1.3,-0.2 2.7,-1.3 3,-2.6 0.4,0.1 0.7,0.4 0.8,0.7 -0.1,0.4 -0.2,0.8 -0.4,1.2 -0.2,0.3 -0.6,0.6 -0.8,0.9 -0.3,0.1 -0.5,0.1 -0.7,0.1 z m 26.2,-1.2 c -0.6,-0.8 -8.9,-2.7 -11.7,-2.8 -2.8,-0.2 -8.8,0.6 -9.4,1.4 -0.6,0.8 -0.5,1.5 -0.3,1.9 0.3,0.8 1.2,1.2 2,1.4 h 0.3 c 0.9,0 3.2,-0.2 6.6,-0.5 3.8,-0.4 8.4,-0.8 9.2,-0.7 1.7,0.3 2.8,0.5 3.3,0.1 0.1,-0.1 0.2,-0.2 0.3,-0.4 v -0.2 z m -2,-0.1 c 0,0.1 0.1,0.1 0.1,0.2 -0.2,0 -0.5,-0.1 -0.7,-0.1 0,-0.1 -0.1,-0.2 -0.1,-0.3 0.2,0.1 0.5,0.1 0.7,0.2 z m -2,0 h -0.8 l -0.6,-0.9 1.2,0.3 c 0,0.2 0.1,0.4 0.2,0.6 z m -2.2,0.1 c -0.4,-0.3 -0.7,-0.6 -0.9,-1.1 -0.1,-0.2 -0.3,-0.1 -0.3,0.1 0.1,0.4 0.4,0.8 0.7,1.1 -0.2,0 -0.5,0 -0.7,0.1 -0.6,-0.5 -1,-1.2 -1.4,-1.8 0.9,0.2 2,0.4 2.9,0.6 0.1,0.4 0.3,0.7 0.6,1 -0.3,-0.1 -0.6,0 -0.9,0 z m -2.3,0.2 c -0.3,-0.3 -0.7,-0.6 -1,-0.9 -0.3,-0.4 -0.7,-0.8 -1,-1.2 0.4,0.1 0.9,0.1 1.4,0.2 v 0.1 c 0.3,0.5 0.7,1 1,1.4 l 0.3,0.3 c -0.3,0.1 -0.5,0.1 -0.7,0.1 z m -3.3,-2.3 c 0.2,0 0.5,0 0.8,0.1 0.4,0.6 0.8,1.1 1.3,1.6 0.2,0.2 0.4,0.4 0.6,0.7 -0.3,0 -0.6,0.1 -0.9,0.1 -0.4,-0.7 -0.9,-1.3 -1.6,-1.8 -0.2,-0.2 -0.5,-0.4 -0.8,-0.6 0.2,-0.1 0.4,-0.1 0.6,-0.1 z m 0,2.6 c -0.4,-0.3 -0.8,-0.7 -1.1,-1 -0.4,-0.5 -0.6,-1 -0.9,-1.6 h 0.4 c 0.4,0.4 1,0.6 1.5,0.9 0.6,0.4 1.1,0.9 1.6,1.5 -0.4,0.1 -0.9,0.1 -1.5,0.2 z m -4.1,0.4 c -0.4,-0.2 -0.6,-0.8 -0.7,-1.3 -0.1,-0.4 -0.2,-0.8 -0.3,-1.3 0,0 0,-0.1 -0.1,-0.1 0.3,0 0.6,-0.1 0.9,-0.1 v 0.1 c 0.1,0.8 0.3,2.7 1.5,2.5 0.2,0 0.1,-0.3 0,-0.3 -0.9,-0.2 -1.1,-1.5 -1.2,-2.3 0.2,0 0.4,0 0.6,-0.1 0.2,0.8 0.7,2.2 1.6,2.7 -0.8,0 -1.6,0.1 -2.3,0.2 z m -2.1,0.2 c -0.3,-0.4 -0.6,-0.8 -0.8,-1.2 -0.2,-0.4 -0.2,-0.8 -0.2,-1.3 0.2,0 0.4,-0.1 0.6,-0.1 0,0.9 0.2,2.2 1.1,2.6 -0.2,-0.1 -0.4,-0.1 -0.7,0 z m -1.1,-0.1 c -0.8,-0.3 -1,-1.4 -1.1,-2.2 0.2,-0.1 0.5,-0.1 0.8,-0.2 -0.1,0.9 0.2,1.9 0.9,2.4 -0.2,0.1 -0.3,0.1 -0.6,0 0.1,0.1 0.1,0.1 0,0 z m 2.3,-0.1 c -0.8,-0.5 -1.2,-1.6 -1.3,-2.5 0.3,-0.1 0.6,-0.1 0.9,-0.2 l -0.1,0.1 c 0.1,0.7 0.3,1.4 0.6,2.1 0.1,0.2 0.2,0.3 0.3,0.4 -0.1,0.1 -0.2,0.1 -0.4,0.1 z m -4,-0.7 c -0.1,-0.3 -0.1,-0.7 0.3,-1.2 0,0 0.1,-0.1 0.2,-0.1 0,0.6 0,1.2 0.3,1.7 0.1,0.1 0.1,0.2 0.2,0.3 -0.5,-0.1 -0.8,-0.3 -1,-0.7 z m 8.1,0.4 h -0.2 c 0,0 0,-0.1 -0.1,-0.1 -0.6,-0.2 -1,-0.5 -1.3,-1 -0.3,-0.5 -0.5,-1 -0.8,-1.5 0.3,0 0.6,-0.1 1,-0.1 0.1,0.7 0.4,1.3 0.9,1.9 0.2,0.2 0.4,0.5 0.7,0.8 z m 9,-0.7 c -0.1,-0.2 -0.1,-0.3 -0.2,-0.5 0.2,0.1 0.4,0.1 0.6,0.2 0,0.1 0,0.2 0.1,0.4 H 119 c -0.1,-0.1 -0.2,-0.1 -0.4,-0.1 z m 2.4,0.3 c -0.1,0 -0.1,0 0,0 h 0.2 z"
                 fill="#000000"
                 stroke-width="none"
                 opacity="1" />
            </g>
          </g>
          <g
             id="svga-group-nose-single-move">
            <g
               id="svga-group-nose-single">
              <path
                 id="SvgjsPath17241"
                 d="m 103.29,107.27 c -1.43,1.14 -6.6,0.84 -8.09,-1.16 -1.49,-2.01 -1.23,-5.37 -0.71,-8.74 0.52,-3.36 3.24,-17.34 3.75,-18.38 0.52,-1.04 1.75,-1.16 2.39,0 0.64,1.16 3.43,16.63 3.75,20.45 0.32,3.82 0.86,6.28 -1.09,7.83 z"
                 fill="#ffffff"
                 stroke-width="none"
                 opacity="1" />
              <path
                 id="SvgjsPath17242"
                 d="m 95.15,107.24 c 2.35,1.15 5.1,2.37 7.68,1.14 2.66,-1.27 2.67,-4.06 2.36,-6.63 -0.96,-7.77 -2.31,-15.48 -3.95,-23.13 -0.2,-0.94 -1.65,-0.54 -1.44,0.4 1.2,5.6 2.24,11.23 3.09,16.89 0.41,2.72 1.34,5.93 0.94,8.68 -0.62,4.25 -5.38,2.6 -7.91,1.36 -0.88,-0.42 -1.64,0.87 -0.77,1.29 z"
                 fill="#000000"
                 stroke-width="none"
                 opacity="1" />
            </g>
          </g>
          <g
             id="svga-group-hair-front">
            <path
               id="SvgjsPath18196"
               d="m 73.2,48.8 c 0,0 14.8,-0.7 23,-2.9 0,0 22.1,2 28.9,1.3 0,0 6,10 10.1,11.3 0,0 1.6,8.2 3.6,10.4 0,0 1.6,9.3 2.9,12 1.3,2.7 -0.7,14 -0.7,14 0,0 7.8,-12.7 7.2,-19.1 0,0 4,6.2 9.2,8.4 0,0 -7.2,-15.5 -7.6,-20.7 0,0 7.6,2 11.6,5.3 0,0 -8.1,-15.5 -13,-18.9 0,0 3.6,-0.9 8.3,-3.3 0,0 -9.6,-2.7 -12.1,-4.9 0,0 7.6,-3.6 10.3,-8.4 0,0 -9.2,1.1 -11.2,0.4 0,0 3.4,-8.7 3.8,-14.4 0,0 -9.2,5.8 -14.8,4.4 0,0 4.3,-5.1 5.1,-9.1 0,0 -15.2,5.6 -26.8,4.7 0,0 3.6,-5.8 4.3,-10.2 0,0 -10.7,7.3 -16.6,8.2 -5.8,1.1 -14.8,3.7 -14.8,3.7 0,0 2.5,-5.3 1.8,-10.4 0,0 -11.9,14.2 -15,16.4 -3.1,2.2 -9.8,6.7 -9.8,6.7 0,0 -1.1,-9.3 -5.4,-13.8 0,0 0.4,16.7 -1.3,20.2 0,0 -5.4,-4.7 -11.2,-6 0,0 6.7,9.3 8.3,12.9 0,0 -4.5,8 -10.5,10 l 7.8,1.3 c 0,0 -3.8,11.1 -5.8,15.1 -2,4 -4.3,9.1 -7.6,12.4 l 13.2,-7.1 c 0,0 -6.3,15.5 -5.8,22.9 L 50,94 c 0,0 1.6,10.4 4.5,12 0,0 2.2,-18 4.3,-21.1 2,-3.1 5.8,-27.3 5.8,-27.3 0,0 1.8,7.6 2,11.3 -0.1,0.1 7,-12.6 6.6,-20.1 z"
               fill="#ffffff"
               stroke-width="none"
               opacity="1" />
            <path
               id="SvgjsPath18197"
               d="m 162.2,68.5 c -0.3,-0.6 -6.8,-13.1 -11.8,-18 1.5,-0.5 3.9,-1.4 6.7,-2.9 0.4,-0.2 0.6,-0.6 0.5,-1 -0.1,-0.4 -0.3,-0.7 -0.7,-0.9 -2.2,-0.6 -7.6,-2.3 -10.4,-3.8 2.4,-1.3 7.1,-4.3 9.2,-8.1 0.2,-0.3 0.2,-0.7 0,-1 -0.2,-0.3 -0.6,-0.5 -0.9,-0.4 -2.9,0.3 -7.5,0.8 -9.7,0.6 0.9,-2.6 3.1,-8.9 3.4,-13.6 0,-0.4 -0.2,-0.7 -0.5,-0.9 -0.3,-0.2 -0.7,-0.2 -1,0 -0.1,0 -7.2,4.5 -12.4,4.5 1.4,-1.9 3.6,-5.2 4.2,-8.1 0.1,-0.4 0,-0.7 -0.3,-1 -0.3,-0.2 -0.7,-0.3 -1,-0.2 -0.1,0.1 -13.8,5 -24.8,4.7 1.1,-2 3.1,-5.9 3.6,-9.2 0.1,-0.4 -0.1,-0.8 -0.5,-1 -0.3,-0.2 -0.8,-0.2 -1.1,0 -0.1,0.1 -10.6,7.2 -16.1,8.1 -4.2,0.6 -10,2.2 -13,3 0.7,-2.1 1.6,-5.6 1.1,-9.1 C 86.6,9.8 86.4,9.5 86,9.4 85.6,9.3 85.2,9.4 85,9.7 80.9,14.6 72.6,24.3 70.2,26 68,27.6 63.8,30.4 61.7,31.8 61.2,28.9 59.7,22.6 56.3,19 56,18.7 55.6,18.6 55.2,18.8 c -0.4,0.2 -0.6,0.5 -0.6,0.9 0.1,4.1 0.1,14.4 -0.8,18.5 -1.9,-1.5 -6,-4.3 -10.5,-5.3 -0.4,-0.1 -0.8,0.1 -1.1,0.4 -0.2,0.3 -0.2,0.8 0,1.1 0.1,0.1 6.1,8.5 8,12.2 -1,1.6 -4.9,7.5 -9.7,9.1 -0.4,0.1 -0.7,0.6 -0.7,1 0,0.5 0.4,0.8 0.8,0.9 l 6.7,1.1 c -1,2.9 -3.8,10.7 -5.4,13.9 -0.3,0.6 -0.6,1.1 -0.9,1.7 -1.8,3.6 -3.8,7.7 -6.6,10.4 -0.4,0.4 -0.4,0.9 -0.1,1.3 0.3,0.4 0.8,0.5 1.3,0.3 l 10.8,-5.8 c -1.8,4.8 -5.3,15 -4.9,20.8 0,0.4 0.3,0.7 0.6,0.9 0.4,0.1 0.8,0 1.1,-0.2 l 6,-6.2 c 0.6,3.4 2.1,9.4 4.7,10.8 0.1,0.1 0.3,0.1 0.5,0.1 0.2,0 0.3,0 0.5,-0.1 0.3,-0.2 0.5,-0.4 0.5,-0.8 0.9,-7.1 2.7,-18.5 4.1,-20.7 1.5,-2.4 3.8,-15 5.1,-22.5 0.4,2.1 0.8,4.4 0.9,6 0,0.4 0.3,0.8 0.8,0.9 0.4,0.1 0.9,-0.1 1.1,-0.5 0.3,-0.5 6.7,-12 6.9,-19.8 3.4,-0.2 14.9,-0.9 22.1,-2.8 2.2,0.2 21.2,1.9 28.2,1.4 1.3,2.2 6,9.2 9.7,11 0.4,1.9 1.7,7.9 3.5,10.2 0.3,1.6 1.7,9.5 3,12 0.9,1.7 0,9.1 -0.8,13.4 -0.1,0.5 0.2,0.9 0.6,1.1 0.4,0.2 1,0 1.2,-0.4 0.3,-0.5 6.1,-9.9 7.2,-16.8 1.7,2.1 4.6,5.1 7.9,6.5 0.4,0.2 0.8,0.1 1.1,-0.2 0.3,-0.3 0.4,-0.7 0.2,-1.1 -0.1,-0.1 -5.9,-12.9 -7.3,-18.8 2.4,0.7 7,2.4 9.7,4.7 0.4,0.3 0.9,0.3 1.3,0 0.4,-0.3 0.5,-0.4 0.3,-0.9 z m -12.3,-5.8 c -0.3,-0.1 -0.6,0 -0.9,0.2 -0.3,0.2 -0.4,0.5 -0.4,0.9 0.3,3.9 4.3,13.4 6.4,18.1 -3.5,-2.6 -6.1,-6.5 -6.2,-6.6 -0.3,-0.4 -0.7,-0.6 -1.2,-0.4 -0.4,0.2 -0.7,0.6 -0.7,1 0.4,3.6 -2.2,9.6 -4.4,13.8 0.4,-3.5 0.6,-7.6 -0.2,-9.2 -1,-2.1 -2.4,-9.2 -2.8,-11.7 0,-0.2 -0.1,-0.4 -0.2,-0.5 -1.5,-1.6 -2.9,-7.7 -3.3,-10 -0.1,-0.4 -0.3,-0.6 -0.7,-0.8 -3,-1 -7.8,-8.1 -9.5,-10.8 4.6,-1.9 8.7,-4.8 12,-8.6 0.3,-0.4 0.1,-0.8 -0.2,-1 -0.1,-0.3 -0.3,-0.5 -0.7,-0.4 -3.6,1.4 -7.2,2.3 -11,2.7 4,-3.6 7.1,-8 9.3,-13 0.2,-0.6 -0.3,-1.1 -0.7,-0.9 -0.2,-0.1 -0.5,-0.2 -0.8,0 -3.6,2.8 -7.5,5 -11.9,6.5 -0.8,0.3 -0.4,1.5 0.3,1.2 4.1,-1.4 7.8,-3.4 11.3,-6 -2.3,4.6 -5.4,8.7 -9.3,12.1 -0.2,0.2 -0.2,0.4 -0.2,0.6 -0.2,0.4 0,0.9 0.5,0.9 3.9,-0.3 7.6,-1.1 11.3,-2.3 -3.2,3.3 -7.1,5.9 -11.5,7.5 -0.1,0.1 -0.2,0.1 -0.3,0.2 C 118,46.6 103.4,45.4 98,45 c 6.7,-2.8 12.6,-7 17.4,-12.7 0.1,-0.1 0.1,-0.2 0.1,-0.4 0.3,-0.5 -0.5,-1.2 -1,-0.7 -3.7,3.4 -10.4,3.5 -15.1,4.4 -0.8,0.2 -0.5,1.4 0.3,1.2 3.7,-0.7 8.3,-1 12.1,-2.6 -5.1,5.1 -11.3,8.9 -18.3,11 -0.1,0 -0.1,0.1 -0.2,0.1 -8.3,1.7 -20.4,2.3 -20.6,2.3 -0.3,0 -0.5,0.1 -0.7,0.3 -0.2,0.2 -0.3,0.5 -0.3,0.7 0.3,5.1 -3.1,12.7 -5.1,16.8 -0.6,-3.7 -1.6,-8 -1.6,-8.2 -0.1,-0.5 -0.5,-0.8 -1,-0.8 -0.5,0 -0.9,0.4 -0.9,0.8 -1.5,9.6 -4.3,24.8 -5.7,26.9 -1.7,2.6 -3.4,14.3 -4.1,19.3 -1.2,-2.3 -2.3,-6.7 -2.8,-9.8 -0.1,-0.4 -0.3,-0.7 -0.7,-0.8 h -0.3 c -0.3,0 -0.5,0.1 -0.7,0.3 l -5.6,5.7 C 43.9,91.2 48.8,79 48.9,78.8 49.1,78.4 49,78 48.6,77.7 48.3,77.4 47.8,77.4 47.5,77.6 l -8.9,4.8 c 1.5,-2.3 2.7,-4.8 3.9,-7.1 0.3,-0.6 0.6,-1.2 0.9,-1.7 2,-4 5.7,-14.8 5.9,-15.2 0.1,-0.3 0.1,-0.6 -0.1,-0.8 -0.1,-0.3 -0.4,-0.4 -0.7,-0.5 L 44,56.5 c 4.8,-3.1 8,-8.8 8.2,-9 0.2,-0.3 0.2,-0.6 0,-0.9 C 51.1,44.1 47.7,39 45.5,36 c 4.4,1.8 7.9,4.9 8,4.9 0.2,0.2 0.5,0.3 0.8,0.2 0.3,-0.1 0.6,-0.3 0.7,-0.5 1.4,-2.8 1.5,-12.4 1.5,-17.5 2.5,4.5 3.3,10.7 3.3,10.8 0,0.3 0.3,0.6 0.6,0.8 0.3,0.1 0.7,0.1 1,-0.1 0.1,0 6.8,-4.5 9.9,-6.7 2.5,-1.8 10.1,-10.6 13.5,-14.6 -0.2,3.9 -1.8,7.4 -1.8,7.4 -0.2,0.4 -0.1,0.8 0.2,1.1 0.3,0.3 0.7,0.4 1,0.3 0.1,0 8.9,-2.7 14.6,-3.5 4.4,-0.7 11.3,-4.8 14.8,-7 -1.2,3.7 -3.5,7.4 -3.5,7.5 -0.2,0.3 -0.2,0.7 0,1 0.2,0.3 0.5,0.5 0.8,0.5 9.4,0.7 20.8,-2.6 25.3,-4.1 -1.4,3.3 -4.3,6.8 -4.3,6.9 -0.2,0.3 -0.3,0.6 -0.2,1 0.1,0.4 0.4,0.6 0.7,0.7 4.4,1.1 10.7,-1.9 13.8,-3.5 -0.9,5.4 -3.5,12.1 -3.5,12.2 -0.1,0.3 -0.1,0.5 0,0.8 0.1,0.3 0.3,0.4 0.6,0.5 1.6,0.5 6.4,0.1 9.4,-0.2 -3.1,3.7 -8.6,6.3 -8.6,6.3 -0.3,0.1 -0.5,0.4 -0.6,0.8 0,0.3 0.1,0.7 0.3,0.9 1.8,1.6 6.9,3.4 10,4.4 -3.4,1.5 -5.7,2.1 -5.8,2.1 -0.4,0.1 -0.7,0.4 -0.7,0.8 -0.1,0.4 0.1,0.8 0.4,1 3.3,2.2 8.1,10.4 10.8,15.1 -3.9,-2.3 -8.3,-3.5 -8.6,-3.6 z M 91.4,23.9 c -0.1,0 -0.1,0.1 -0.2,0.1 -7.9,2.2 -17.1,6.5 -20.8,14.3 -0.3,0.7 0.7,1.4 1.1,0.6 3.1,-6.6 10.4,-10.6 17.3,-12.9 -1.9,1.8 -3.5,3.9 -4.7,6.3 -0.4,0.7 0.7,1.3 1.1,0.6 1.6,-3.1 3.8,-5.8 6.6,-7.9 h 0.1 c 0.5,-0.1 0.5,-0.7 0.3,-1 -0.1,-0.2 -0.5,-0.4 -0.8,-0.1 z M 59.6,51 c -1.4,5.4 -3,10.7 -6.7,14.8 C 54,61.9 54.1,57.9 53.2,53.9 53,53 51.8,53.4 52,54.2 c 1,4.5 0.7,8.9 -0.9,13.2 -0.1,0.2 0,0.4 0.1,0.6 0.2,0.3 0.7,0.6 1,0.2 5.1,-4.3 7,-10.6 8.6,-16.8 0.2,-0.9 -1,-1.2 -1.2,-0.4 z"
               fill="#000000"
               stroke-width="none"
               opacity="1" />
          </g>
          <g
             id="svga-group-glasses-single-move">
            <g
               id="svga-group-glasses-single">
              <path
                 id="SvgjsPath17117"
                 d="m 94,84.7 c -1.1,-5 -4.7,-12 -15.5,-12.3 -10.8,-0.3 -15.6,7.8 -16.5,15 -0.8,7.2 4.9,13.9 8.8,15.6 3.8,1.7 11.7,3.3 17.7,-2.1 6,-5.4 6.6,-11.3 5.5,-16.2 z"
                 fill="#000000"
                 stroke-width="none"
                 opacity="1" />
              <path
                 id="SvgjsPath17118"
                 d="m 105.4,84.7 c 1.1,-5 4.7,-12 15.5,-12.3 10.8,-0.3 15.6,7.8 16.5,15 0.9,7.2 -4.9,13.9 -8.8,15.6 -3.9,1.7 -11.7,3.3 -17.7,-2.1 -6.1,-5.5 -6.6,-11.3 -5.5,-16.2 z"
                 fill="#000000"
                 stroke-width="none"
                 opacity="1" />
              <path
                 id="SvgjsPath17119"
                 d="m 65.6,88.7 13.6,-11.3 0.2,0.2 -13.6,11.3 z m 7.8,12 13.6,-11.3 0.2,0.2 -13.6,11.3 z m -1.3,-5 18.5,-15.4 0.2,0.2 -18.5,15.4 z m -5.4,-1.4 18.2,-15.1 0.2,0.2 -18.2,15.1 z"
                 fill="#ffffff"
                 stroke-width="none"
                 opacity="1" />
              <path
                 id="SvgjsPath17120"
                 d="m 108,88.7 13.6,-11.3 0.2,0.2 -13.6,11.3 z m 7.7,12 13.6,-11.3 0.2,0.2 -13.6,11.3 z m -1.2,-5 18.5,-15.4 0.2,0.2 -18.5,15.4 z m -5.4,-1.4 18.2,-15.1 0.2,0.2 -18.2,15.1 z"
                 fill="#ffffff"
                 stroke-width="none"
                 opacity="1" />
              <path
                 id="SvgjsPath17121"
                 d="m 140.5,86.2 c -0.2,-0.1 -1.7,-0.1 -2.6,-0.1 -1.2,-7.1 -6.3,-14.8 -17.1,-14.4 -10.6,0.3 -14.5,6.8 -15.8,11.5 -0.5,-0.6 -1.3,-1 -1.8,-1.1 -0.6,-0.1 -4.8,-0.2 -6.5,-0.1 -1.8,0.2 -2.2,1.2 -2.2,1.2 l -0.1,0.1 C 93,78.6 89.2,72 78.5,71.7 67.8,71.3 62.8,79 61.5,86.1 c -0.9,0 -2.4,0 -2.5,0.1 -0.2,0.2 0,2.1 0,2.1 l 2.3,0.1 c -0.2,6.9 5.1,13.5 9.3,15.3 1,0.4 4.2,1.7 8.1,1.7 3.3,0 7.1,-0.9 10.4,-3.9 5.2,-4.7 7.1,-10.2 5.7,-16.8 0.1,-0.2 0.2,-0.3 0.3,-0.5 0.3,-0.4 1.1,-1.1 1.8,-1.2 0.7,-0.1 4.7,0 5.3,0 0.6,0 1.4,0.4 1.8,0.8 0.2,0.2 0.4,0.6 0.6,0.9 -1.4,6.6 0.4,12.1 5.7,16.8 3.3,3 7.1,3.9 10.4,3.9 3.9,0 7.1,-1.2 8.1,-1.7 4.2,-1.8 9.5,-8.4 9.3,-15.3 l 2.3,-0.1 c 0.1,0 0.3,-1.9 0.1,-2.1 z m -52.4,14.1 c -6.6,6 -15.3,2.7 -16.9,2 C 67.9,100.9 62,94.5 62.9,87.5 63.7,80.8 68.1,73.2 78,73.2 h 0.6 c 10.1,0.3 13.6,6.5 14.8,11.7 1.2,6 -0.5,11 -5.3,15.4 z m 40.2,1.9 c -1.7,0.7 -10.3,4 -16.9,-2 -4.8,-4.4 -6.5,-9.4 -5.2,-15.4 1.1,-5.2 4.6,-11.4 14.8,-11.7 h 0.6 c 9.9,0 14.3,7.7 15.1,14.3 0.7,7 -5.1,13.4 -8.4,14.8 z"
                 fill="#ffffff"
                 stroke-width="none"
                 opacity="1" />
              <path
                 id="SvgjsPath17122"
                 d="m 78.6,72.9 c -10.5,-0.3 -15.2,7.7 -16,14.5 -0.8,7.1 5.1,13.6 8.5,15 0.9,0.4 3.9,1.6 7.6,1.6 3,0 6.5,-0.8 9.6,-3.6 4.9,-4.4 6.6,-9.6 5.3,-15.7 -1.2,-5.1 -4.8,-11.5 -15,-11.8 z m 9.3,27.2 c -6.5,5.9 -15,2.6 -16.7,1.9 -3.3,-1.4 -9,-7.7 -8.2,-14.5 0.8,-6.5 5.1,-14.1 14.9,-14.1 h 0.6 c 10,0.3 13.4,6.4 14.5,11.5 1.4,5.9 -0.3,10.9 -5.1,15.2 z M 140.6,86 c -0.1,-0.1 -0.2,-0.2 -2.5,-0.2 -1.3,-7.2 -6.5,-14.8 -17.3,-14.4 -10.3,0.3 -14.3,6.2 -15.9,11.3 -0.5,-0.5 -1.2,-0.8 -1.6,-0.9 -0.7,-0.1 -4.8,-0.2 -6.6,-0.1 -1.2,0.1 -1.8,0.6 -2.2,1 -1.6,-5.1 -5.7,-11 -15.9,-11.3 -10.7,-0.3 -15.9,7.2 -17.3,14.4 -2.2,0 -2.4,0.1 -2.5,0.2 -0.1,0.1 -0.3,0.2 -0.1,2.3 v 0.2 H 61 c -0.1,7.2 5.5,13.6 9.4,15.3 0.9,0.4 4.2,1.7 8.2,1.7 4.1,0 7.7,-1.3 10.6,-4 5.3,-4.8 7.2,-10.3 5.8,-17 0.1,-0.1 0.2,-0.3 0.2,-0.4 0.3,-0.4 1,-1 1.7,-1.1 0.7,-0.1 4.5,0 5.3,0 0.6,0 1.3,0.4 1.7,0.8 0.1,0.1 0.3,0.3 0.5,0.8 -1.4,6.6 0.5,12.2 5.8,16.9 2.9,2.6 6.5,4 10.6,4 4,0 7.3,-1.3 8.2,-1.7 4,-1.7 9.6,-8.1 9.4,-15.3 h 2.3 v -0.2 c 0.2,-2 0,-2.2 -0.1,-2.3 z m -0.4,2 -2.3,0.1 v 0.2 c 0.2,7 -5.2,13.4 -9.1,15.1 -0.9,0.4 -4.1,1.7 -8,1.7 -4,0 -7.4,-1.3 -10.2,-3.8 -5.2,-4.7 -7,-10.1 -5.6,-16.5 v -0.2 c -0.2,-0.5 -0.5,-0.8 -0.7,-1 -0.5,-0.4 -1.2,-0.8 -2,-0.9 -0.4,0 -2.1,-0.1 -3.5,-0.1 -0.9,0 -1.6,0 -1.9,0.1 -0.8,0.2 -1.7,0.9 -2,1.3 -0.1,0.2 -0.2,0.3 -0.3,0.5 v 0.2 c 1.4,6.5 -0.4,11.9 -5.6,16.6 -2.8,2.6 -6.3,3.8 -10.2,3.8 -3.9,0 -7.1,-1.3 -8,-1.7 -3.9,-1.7 -9.4,-8 -9.1,-15.1 V 88.1 L 59.2,88 c -0.1,-0.7 -0.1,-1.4 0,-1.6 0.2,0 0.9,-0.1 2.4,-0.1 h 0.2 V 86.1 C 63,79 68.1,71.6 78.6,71.9 c 10.3,0.3 14.2,6.4 15.6,11.4 l 0.2,0.5 0.4,-0.6 c 0,0 0.4,-0.9 2,-1 1.8,-0.2 5.9,-0.1 6.4,0.1 0.4,0.1 1.2,0.6 1.7,1.1 l 0.3,0.3 0.1,-0.4 c 1.5,-5 5.4,-11 15.6,-11.4 10.5,-0.3 15.6,7.1 16.8,14.2 v 0.2 h 0.2 c 1.4,0 2.2,0 2.4,0.1 0,0.3 0,1 -0.1,1.6 z M 121.5,72.9 h -0.6 c -10.3,0.3 -13.8,6.7 -15,11.9 -1.3,6.1 0.4,11.2 5.3,15.7 3.1,2.8 6.5,3.6 9.6,3.6 3.7,0 6.7,-1.2 7.6,-1.6 3.4,-1.5 9.3,-7.9 8.5,-15 -0.8,-6.8 -5.3,-14.6 -15.4,-14.6 z m 6.7,29.1 c -1.6,0.7 -10.1,4 -16.7,-1.9 -4.8,-4.3 -6.4,-9.3 -5.1,-15.2 1.1,-5.1 4.6,-11.2 14.5,-11.5 h 0.6 c 9.8,0 14.1,7.6 14.8,14.1 0.8,6.8 -4.9,13.1 -8.1,14.5 z"
                 fill="#000000"
                 stroke-width="none"
                 opacity="1" />
            </g>
          </g>
        </g>
      </g>
    </g>
  </g>
  <defs
     id="SvgjsDefs16904" />
</svg>
